{
	"asset":{
		"generator":"Khronos glTF Blender I/O v5.0.21",
		"version":"2.0"
	},
	"extensionsUsed":[
		"KHR_materials_specular"
	],
	"scene":0,
	"scenes":[
		{
			"name":"Scene",
			"nodes":[
				122
			]
		}
	],
	"nodes":[
		{
			"mesh":0,
			"name":"Cessna_Exterior_Body_MAT_0_Body_MAT_0",
			"translation":[
				0,
				-5.7034194469451904e-06,
				0
			]
		},
		{
			"children":[
				0
			],
			"name":"Cessna_Exterior_Body_MAT_0",
			"translation":[
				0,
				-5.707144737243652e-06,
				0
			]
		},
		{
			"mesh":1,
			"name":"Cessna_Exterior_Body_MAT_0.001_Body_MAT_0",
			"translation":[
				0,
				-5.7034194469451904e-06,
				0
			]
		},
		{
			"children":[
				2
			],
			"name":"Cessna_Exterior_Body_MAT_0.001",
			"translation":[
				0,
				-5.707144737243652e-06,
				0
			]
		},
		{
			"mesh":2,
			"name":"Cessna_Exterior_Body_MAT_0.002_Body_MAT_0",
			"translation":[
				0,
				-5.7034194469451904e-06,
				0
			]
		},
		{
			"children":[
				4
			],
			"name":"Cessna_Exterior_Body_MAT_0.002",
			"translation":[
				0,
				-5.707144737243652e-06,
				0
			]
		},
		{
			"mesh":3,
			"name":"Cessna_Exterior_Body_MAT_0.003_Body_MAT_0",
			"translation":[
				0,
				-5.7034194469451904e-06,
				0
			]
		},
		{
			"children":[
				6
			],
			"name":"Cessna_Exterior_Body_MAT_0.003",
			"translation":[
				0,
				-5.707144737243652e-06,
				0
			]
		},
		{
			"mesh":4,
			"name":"Cessna_Exterior_Body_MAT_0.004_Body_MAT_0",
			"translation":[
				0,
				-5.7034194469451904e-06,
				0
			]
		},
		{
			"children":[
				8
			],
			"name":"Cessna_Exterior_Body_MAT_0.004",
			"translation":[
				0,
				-5.707144737243652e-06,
				0
			]
		},
		{
			"mesh":5,
			"name":"Cessna_Exterior_Body_MAT_0.005_Body_MAT_0",
			"translation":[
				0,
				-5.7034194469451904e-06,
				0
			]
		},
		{
			"children":[
				10
			],
			"name":"Cessna_Exterior_Body_MAT_0.005",
			"translation":[
				0,
				-5.707144737243652e-06,
				0
			]
		},
		{
			"mesh":6,
			"name":"Cessna_Exterior_Body_MAT_0.006_Body_MAT_0",
			"translation":[
				0,
				-5.7034194469451904e-06,
				0
			]
		},
		{
			"children":[
				12
			],
			"name":"Cessna_Exterior_Body_MAT_0.006",
			"translation":[
				0,
				-5.707144737243652e-06,
				0
			]
		},
		{
			"mesh":7,
			"name":"Cessna_Exterior_Body_MAT_0.007_Body_MAT_0",
			"translation":[
				0,
				-5.7034194469451904e-06,
				0
			]
		},
		{
			"children":[
				14
			],
			"name":"Cessna_Exterior_Body_MAT_0.007",
			"translation":[
				0,
				-5.707144737243652e-06,
				0
			]
		},
		{
			"mesh":8,
			"name":"Cessna_Exterior_Body_MAT_0.008_Body_MAT_0",
			"translation":[
				0.09103626757860184,
				-180.9038543701172,
				523.6493530273438
			]
		},
		{
			"children":[
				16
			],
			"name":"Cessna_Exterior_Body_MAT_0.008",
			"translation":[
				0,
				-5.707144737243652e-06,
				0
			]
		},
		{
			"mesh":9,
			"name":"Cessna_Exterior_Body_MAT_0.009_Body_MAT_0",
			"translation":[
				0,
				-5.7034194469451904e-06,
				0
			]
		},
		{
			"children":[
				18
			],
			"name":"Cessna_Exterior_Body_MAT_0.009",
			"translation":[
				0,
				-5.707144737243652e-06,
				0
			]
		},
		{
			"mesh":10,
			"name":"Cessna_Exterior_Body_MAT_0.010_Body_MAT_0",
			"translation":[
				0,
				-5.7034194469451904e-06,
				0
			]
		},
		{
			"children":[
				20
			],
			"name":"Cessna_Exterior_Body_MAT_0.010",
			"translation":[
				0,
				-5.707144737243652e-06,
				0
			]
		},
		{
			"mesh":11,
			"name":"Cessna_Exterior_Body_MAT_0.011_Body_MAT_0",
			"translation":[
				0,
				-5.7034194469451904e-06,
				0
			]
		},
		{
			"children":[
				22
			],
			"name":"Cessna_Exterior_Body_MAT_0.011",
			"translation":[
				0,
				-5.707144737243652e-06,
				0
			]
		},
		{
			"mesh":12,
			"name":"Cessna_Exterior_Body_MAT_0.012_Body_MAT_0",
			"translation":[
				0,
				-5.7034194469451904e-06,
				0
			]
		},
		{
			"children":[
				24
			],
			"name":"Cessna_Exterior_Body_MAT_0.012",
			"translation":[
				0,
				-5.707144737243652e-06,
				0
			]
		},
		{
			"mesh":13,
			"name":"Cessna_Exterior_Body_MAT_0.013_Body_MAT_0",
			"translation":[
				0,
				-5.7034194469451904e-06,
				0
			]
		},
		{
			"children":[
				26
			],
			"name":"Cessna_Exterior_Body_MAT_0.013",
			"translation":[
				0,
				-5.707144737243652e-06,
				0
			]
		},
		{
			"mesh":14,
			"name":"Cessna_Exterior_Body_MAT_0.014_Body_MAT_0",
			"translation":[
				0,
				-5.7034194469451904e-06,
				0
			]
		},
		{
			"children":[
				28
			],
			"name":"Cessna_Exterior_Body_MAT_0.014",
			"translation":[
				0,
				-5.707144737243652e-06,
				0
			]
		},
		{
			"mesh":15,
			"name":"Cessna_Exterior_Body_MAT_0.015_Body_MAT_0",
			"translation":[
				0,
				-5.7034194469451904e-06,
				0
			]
		},
		{
			"children":[
				30
			],
			"name":"Cessna_Exterior_Body_MAT_0.015",
			"translation":[
				0,
				-5.707144737243652e-06,
				0
			]
		},
		{
			"mesh":16,
			"name":"Cessna_Exterior_Body_MAT_0.016_Body_MAT_0",
			"translation":[
				0,
				-5.7034194469451904e-06,
				0
			]
		},
		{
			"children":[
				32
			],
			"name":"Cessna_Exterior_Body_MAT_0.016",
			"translation":[
				0,
				-5.707144737243652e-06,
				0
			]
		},
		{
			"mesh":17,
			"name":"Cessna_Exterior_Body_MAT_0.017_Body_MAT_0",
			"translation":[
				0,
				-5.7034194469451904e-06,
				0
			]
		},
		{
			"children":[
				34
			],
			"name":"Cessna_Exterior_Body_MAT_0.017",
			"translation":[
				0,
				-5.707144737243652e-06,
				0
			]
		},
		{
			"mesh":18,
			"name":"Cessna_Exterior_Body_MAT_0.018_Body_MAT_0",
			"translation":[
				0,
				-5.7034194469451904e-06,
				0
			]
		},
		{
			"children":[
				36
			],
			"name":"Cessna_Exterior_Body_MAT_0.018",
			"translation":[
				0,
				-5.707144737243652e-06,
				0
			]
		},
		{
			"mesh":19,
			"name":"Cessna_Exterior_Body_MAT_0.019_Body_MAT_0",
			"translation":[
				0,
				-5.7034194469451904e-06,
				0
			]
		},
		{
			"children":[
				38
			],
			"name":"Cessna_Exterior_Body_MAT_0.019",
			"translation":[
				0,
				-5.707144737243652e-06,
				0
			]
		},
		{
			"mesh":20,
			"name":"Cessna_Exterior_Body_MAT_0.020_Body_MAT_0",
			"translation":[
				0,
				-5.7034194469451904e-06,
				0
			]
		},
		{
			"children":[
				40
			],
			"name":"Cessna_Exterior_Body_MAT_0.020",
			"translation":[
				0,
				-5.707144737243652e-06,
				0
			]
		},
		{
			"mesh":21,
			"name":"Cessna_Exterior_Body_MAT_0.021_Body_MAT_0",
			"translation":[
				0,
				-5.7034194469451904e-06,
				0
			]
		},
		{
			"children":[
				42
			],
			"name":"Cessna_Exterior_Body_MAT_0.021",
			"translation":[
				0,
				-5.707144737243652e-06,
				0
			]
		},
		{
			"mesh":22,
			"name":"Cessna_Exterior_Body_MAT_0.022_Body_MAT_0",
			"translation":[
				0,
				-5.7034194469451904e-06,
				0
			]
		},
		{
			"children":[
				44
			],
			"name":"Cessna_Exterior_Body_MAT_0.022",
			"translation":[
				0,
				-5.707144737243652e-06,
				0
			]
		},
		{
			"mesh":23,
			"name":"Cessna_Exterior_Body_MAT_0.023_Body_MAT_0",
			"translation":[
				0,
				-5.7034194469451904e-06,
				0
			]
		},
		{
			"children":[
				46
			],
			"name":"Cessna_Exterior_Body_MAT_0.023",
			"translation":[
				0,
				-5.707144737243652e-06,
				0
			]
		},
		{
			"mesh":24,
			"name":"Cessna_Exterior_Body_MAT_0.024_Body_MAT_0",
			"translation":[
				0,
				-5.7034194469451904e-06,
				0
			]
		},
		{
			"children":[
				48
			],
			"name":"Cessna_Exterior_Body_MAT_0.024",
			"translation":[
				0,
				-5.707144737243652e-06,
				0
			]
		},
		{
			"mesh":25,
			"name":"Cessna_Exterior_Body_MAT_0.025_Body_MAT_0",
			"translation":[
				0,
				-5.7034194469451904e-06,
				0
			]
		},
		{
			"children":[
				50
			],
			"name":"Cessna_Exterior_Body_MAT_0.025",
			"translation":[
				0,
				-5.707144737243652e-06,
				0
			]
		},
		{
			"mesh":26,
			"name":"Cessna_Exterior_Body_MAT_0.026_Body_MAT_0",
			"translation":[
				0,
				-5.7034194469451904e-06,
				0
			]
		},
		{
			"children":[
				52
			],
			"name":"Cessna_Exterior_Body_MAT_0.026",
			"translation":[
				0,
				-5.707144737243652e-06,
				0
			]
		},
		{
			"mesh":27,
			"name":"Cessna_Exterior_Glass_MAT_0_Glass_MAT_0",
			"translation":[
				0,
				-5.7034194469451904e-06,
				0
			]
		},
		{
			"children":[
				54
			],
			"name":"Cessna_Exterior_Glass_MAT_0",
			"translation":[
				0,
				-5.707144737243652e-06,
				0
			]
		},
		{
			"children":[
				1,
				3,
				5,
				7,
				9,
				11,
				13,
				15,
				17,
				19,
				21,
				23,
				25,
				27,
				29,
				31,
				33,
				35,
				37,
				39,
				41,
				43,
				45,
				47,
				49,
				51,
				53,
				55
			],
			"name":"Cessna_Exterior",
			"rotation":[
				-0.043619368225336075,
				0,
				0,
				0.9990482330322266
			],
			"scale":[
				0.010000004433095455,
				0.010000002570450306,
				0.010000002570450306
			],
			"translation":[
				0,
				-1.1672298908233643,
				-0.004246470984071493
			]
		},
		{
			"mesh":28,
			"name":"Cessna_Interior_ButtonPlate_MAT_0_ButtonPlate_MAT_0"
		},
		{
			"children":[
				57
			],
			"name":"Cessna_Interior_ButtonPlate_MAT_0"
		},
		{
			"mesh":29,
			"name":"Cessna_Interior_Buttons_MAT_0_Buttons_MAT_0"
		},
		{
			"children":[
				59
			],
			"name":"Cessna_Interior_Buttons_MAT_0"
		},
		{
			"mesh":30,
			"name":"Cessna_Interior_Interior_Body_MAT_0_Interior_Body_MAT_0"
		},
		{
			"children":[
				61
			],
			"name":"Cessna_Interior_Interior_Body_MAT_0"
		},
		{
			"mesh":31,
			"name":"Cessna_Interior_Meter_01_MAT_0_Meter_01_MAT_0"
		},
		{
			"children":[
				63
			],
			"name":"Cessna_Interior_Meter_01_MAT_0"
		},
		{
			"mesh":32,
			"name":"Cessna_Interior_MI_Glass1_0_MI_Glass1_0"
		},
		{
			"children":[
				65
			],
			"name":"Cessna_Interior_MI_Glass1_0"
		},
		{
			"mesh":33,
			"name":"Cessna_Interior_Paddle_MAT_0_Paddle_MAT_0"
		},
		{
			"children":[
				67
			],
			"name":"Cessna_Interior_Paddle_MAT_0"
		},
		{
			"mesh":34,
			"name":"Cessna_Interior_SeatBelt_MAT_0_SeatBelt_MAT_0"
		},
		{
			"children":[
				69
			],
			"name":"Cessna_Interior_SeatBelt_MAT_0"
		},
		{
			"mesh":35,
			"name":"Cessna_Interior_SeatGear_MAT_0_SeatGear_MAT_0"
		},
		{
			"children":[
				71
			],
			"name":"Cessna_Interior_SeatGear_MAT_0"
		},
		{
			"mesh":36,
			"name":"Cessna_Interior_Seats_MAT_0_Seats_MAT_0"
		},
		{
			"children":[
				73
			],
			"name":"Cessna_Interior_Seats_MAT_0"
		},
		{
			"mesh":37,
			"name":"Cessna_Interior_Steering_MAT_0_Steering_MAT_0"
		},
		{
			"children":[
				75
			],
			"name":"Cessna_Interior_Steering_MAT_0"
		},
		{
			"mesh":38,
			"name":"Cessna_Interior_Steering_MAT_0.001_Steering_MAT_0"
		},
		{
			"children":[
				77
			],
			"name":"Cessna_Interior_Steering_MAT_0.001"
		},
		{
			"children":[
				58,
				60,
				62,
				64,
				66,
				68,
				70,
				72,
				74,
				76,
				78
			],
			"name":"Cessna_Interior",
			"rotation":[
				-0.04361937195062637,
				0,
				0,
				0.9990482330322266
			],
			"scale":[
				10.000004768371582,
				10.000005722045898,
				10.000005722045898
			],
			"translation":[
				0,
				-1.1672298908233643,
				-0.004246470984071493
			]
		},
		{
			"mesh":39,
			"name":"Dynamic_Switch_001_New_Mat_0_New_Mat_0"
		},
		{
			"children":[
				80
			],
			"name":"Dynamic_Switch_001_New_Mat_0"
		},
		{
			"children":[
				81
			],
			"name":"Dynamic_Switch_001",
			"rotation":[
				-0.04361938685178757,
				0,
				0,
				0.9990482330322266
			],
			"translation":[
				0.39910411834716797,
				-1.269480586051941,
				-0.6852179765701294
			]
		},
		{
			"mesh":40,
			"name":"Dynamic_Switch_002_New_Mat_0_New_Mat_0"
		},
		{
			"children":[
				83
			],
			"name":"Dynamic_Switch_002_New_Mat_0"
		},
		{
			"children":[
				84
			],
			"name":"Dynamic_Switch_002",
			"rotation":[
				-0.04361938685178757,
				0,
				0,
				0.9990482330322266
			],
			"translation":[
				0.43689316511154175,
				-1.2195900678634644,
				-0.6485753059387207
			]
		},
		{
			"mesh":41,
			"name":"Dynamic_Switch_003_New_Mat_0_New_Mat_0"
		},
		{
			"children":[
				86
			],
			"name":"Dynamic_Switch_003_New_Mat_0"
		},
		{
			"children":[
				87
			],
			"name":"Dynamic_Switch_003",
			"rotation":[
				-0.04361938685178757,
				0,
				0,
				0.9990482330322266
			],
			"translation":[
				0.3502691686153412,
				-1.2220900058746338,
				-0.6771283149719238
			]
		},
		{
			"mesh":42,
			"name":"Dynamic_Switch_004_New_Mat_0_New_Mat_0"
		},
		{
			"children":[
				89
			],
			"name":"Dynamic_Switch_004_New_Mat_0"
		},
		{
			"children":[
				90
			],
			"name":"Dynamic_Switch_004",
			"rotation":[
				-0.04361938685178757,
				0,
				0,
				0.9990482330322266
			],
			"translation":[
				0.27420708537101746,
				-1.2271205186843872,
				-0.6872453093528748
			]
		},
		{
			"mesh":43,
			"name":"Dynamic_Switch_005_New_Mat_0_New_Mat_0"
		},
		{
			"children":[
				92
			],
			"name":"Dynamic_Switch_005_New_Mat_0"
		},
		{
			"children":[
				93
			],
			"name":"Dynamic_Switch_005",
			"rotation":[
				-0.04361938685178757,
				0,
				0,
				0.9990482330322266
			],
			"translation":[
				-0.0024169813841581345,
				-1.247650146484375,
				-0.5872081518173218
			]
		},
		{
			"mesh":44,
			"name":"Dynamic_Switch_006_New_Mat_0_New_Mat_0"
		},
		{
			"children":[
				95
			],
			"name":"Dynamic_Switch_006_New_Mat_0"
		},
		{
			"children":[
				96
			],
			"name":"Dynamic_Switch_006",
			"rotation":[
				-0.04361938685178757,
				0,
				0,
				0.9990482330322266
			],
			"translation":[
				-0.061127834022045135,
				-1.2476998567581177,
				-0.5877953171730042
			]
		},
		{
			"mesh":45,
			"name":"Dynamic_Switch_007_New_Mat_0_New_Mat_0"
		},
		{
			"children":[
				98
			],
			"name":"Dynamic_Switch_007_New_Mat_0"
		},
		{
			"children":[
				99
			],
			"name":"Dynamic_Switch_007",
			"rotation":[
				-0.04361938685178757,
				0,
				0,
				0.9990482330322266
			],
			"translation":[
				-0.17995107173919678,
				-1.2561302185058594,
				-0.6710513234138489
			]
		},
		{
			"mesh":46,
			"name":"Dynamic_Switch_008_New_Mat_0_New_Mat_0"
		},
		{
			"children":[
				101
			],
			"name":"Dynamic_Switch_008_New_Mat_0"
		},
		{
			"children":[
				102
			],
			"name":"Dynamic_Switch_008",
			"rotation":[
				-0.04361938685178757,
				0,
				0,
				0.9990482330322266
			],
			"translation":[
				-0.005851842928677797,
				-0.8401150703430176,
				-0.5347750186920166
			]
		},
		{
			"mesh":47,
			"name":"GlassPartNew_GlassMat_New_0_GlassMat_New_0"
		},
		{
			"children":[
				104
			],
			"name":"GlassPartNew_GlassMat_New_0"
		},
		{
			"children":[
				105
			],
			"name":"GlassPartNew",
			"rotation":[
				-0.04361938685178757,
				0,
				0,
				0.9990482330322266
			],
			"translation":[
				0.13827599585056305,
				-1.4206204414367676,
				-0.680698037147522
			]
		},
		{
			"mesh":48,
			"name":"Static_Base_New_Mat_0_New_Mat_0"
		},
		{
			"children":[
				107
			],
			"name":"Static_Base_New_Mat_0"
		},
		{
			"children":[
				108
			],
			"name":"Static_Base",
			"rotation":[
				-0.04361938685178757,
				0,
				0,
				0.9990482330322266
			],
			"translation":[
				-0.00445129256695509,
				-1.0207700729370117,
				-0.6322790384292603
			]
		},
		{
			"mesh":49,
			"name":"Static_Display_New_Mat_01_0_New_Mat_01_0"
		},
		{
			"children":[
				110
			],
			"name":"Static_Display_New_Mat_01_0"
		},
		{
			"children":[
				111
			],
			"name":"_gltfNode_12",
			"translation":[
				0.09711747616529465,
				0.40862151980400085,
				0.0852179154753685
			]
		},
		{
			"children":[
				112
			],
			"name":"Static_Display",
			"rotation":[
				-0.04361938685178757,
				0,
				0,
				0.9990482330322266
			],
			"translation":[
				-0.10156905651092529,
				-1.4352705478668213,
				-0.6815593242645264
			]
		},
		{
			"mesh":50,
			"name":"Static_TXT_White_New_Static_0_White_New_Static_0"
		},
		{
			"children":[
				114
			],
			"name":"Static_TXT_White_New_Static_0"
		},
		{
			"children":[
				115
			],
			"name":"Static_TXT",
			"rotation":[
				-0.04361938685178757,
				0,
				0,
				0.9990482330322266
			],
			"translation":[
				0.09604202955961227,
				-1.0613099336624146,
				-0.5850092172622681
			]
		},
		{
			"children":[
				56,
				79,
				82,
				85,
				88,
				91,
				94,
				97,
				100,
				103,
				106,
				109,
				113,
				116
			],
			"name":"Cessna-172",
			"rotation":[
				-0.70710688829422,
				0,
				0,
				0.7071066498756409
			]
		},
		{
			"children":[
				117
			],
			"name":"RootNode.001"
		},
		{
			"children":[
				118
			],
			"name":"75f3edaeef374a9f89e7b5ef606a0759.fbx",
			"rotation":[
				-0.70710688829422,
				0,
				0,
				0.7071066498756409
			],
			"scale":[
				113.50482940673828,
				113.50481414794922,
				113.50481414794922
			]
		},
		{
			"children":[
				119
			],
			"name":"RootNode"
		},
		{
			"children":[
				120
			],
			"name":"Cessna172.fbx",
			"rotation":[
				0.70710688829422,
				0,
				0,
				0.7071066498756409
			],
			"scale":[
				0.009999999776482582,
				0.010000000707805157,
				0.010000000707805157
			]
		},
		{
			"children":[
				121
			],
			"name":"Sketchfab_model",
			"rotation":[
				-0.70710688829422,
				0,
				0,
				0.7071066498756409
			]
		}
	],
	"materials":[
		{
			"doubleSided":true,
			"extensions":{
				"KHR_materials_specular":{
					"specularFactor":0.020825445652008057
				}
			},
			"name":"Body_MAT",
			"pbrMetallicRoughness":{
				"baseColorTexture":{
					"index":0
				},
				"metallicFactor":0,
				"metallicRoughnessTexture":{
					"index":1
				}
			}
		},
		{
			"alphaMode":"BLEND",
			"doubleSided":true,
			"name":"Glass_MAT",
			"pbrMetallicRoughness":{
				"baseColorFactor":[
					0,
					0,
					0,
					0.18539737164974213
				]
			}
		},
		{
			"doubleSided":true,
			"name":"ButtonPlate_MAT",
			"pbrMetallicRoughness":{
				"baseColorFactor":[
					0,
					0,
					0,
					1
				],
				"metallicFactor":0
			}
		},
		{
			"doubleSided":true,
			"name":"Buttons_MAT",
			"pbrMetallicRoughness":{
				"metallicFactor":0
			}
		},
		{
			"doubleSided":true,
			"extensions":{
				"KHR_materials_specular":{
					"specularFactor":0
				}
			},
			"name":"Interior_Body_MAT",
			"normalTexture":{
				"index":2
			},
			"occlusionTexture":{
				"index":3
			},
			"pbrMetallicRoughness":{
				"baseColorTexture":{
					"index":4
				},
				"metallicRoughnessTexture":{
					"index":3
				}
			}
		},
		{
			"doubleSided":true,
			"extensions":{
				"KHR_materials_specular":{
					"specularFactor":0
				}
			},
			"name":"Meter_01_MAT",
			"normalTexture":{
				"index":5,
				"texCoord":1
			},
			"occlusionTexture":{
				"index":6
			},
			"pbrMetallicRoughness":{
				"baseColorTexture":{
					"index":7
				},
				"metallicRoughnessTexture":{
					"index":6
				}
			}
		},
		{
			"doubleSided":true,
			"name":"MI_Glass1",
			"pbrMetallicRoughness":{
				"metallicFactor":0
			}
		},
		{
			"doubleSided":true,
			"name":"Paddle_MAT",
			"normalTexture":{
				"index":8
			},
			"pbrMetallicRoughness":{
				"baseColorTexture":{
					"index":9
				},
				"metallicFactor":0,
				"roughnessFactor":0.8211145401000977
			}
		},
		{
			"doubleSided":true,
			"name":"SeatBelt_MAT",
			"normalTexture":{
				"index":10
			},
			"pbrMetallicRoughness":{
				"baseColorTexture":{
					"index":11
				},
				"metallicFactor":0,
				"roughnessFactor":0.8211145401000977
			}
		},
		{
			"doubleSided":true,
			"name":"SeatGear_MAT",
			"pbrMetallicRoughness":{
				"baseColorTexture":{
					"index":12
				},
				"metallicFactor":0
			}
		},
		{
			"doubleSided":true,
			"name":"Seats_MAT",
			"normalTexture":{
				"index":13
			},
			"occlusionTexture":{
				"index":14
			},
			"pbrMetallicRoughness":{
				"baseColorTexture":{
					"index":15
				},
				"metallicRoughnessTexture":{
					"index":14
				}
			}
		},
		{
			"doubleSided":true,
			"extensions":{
				"KHR_materials_specular":{
					"specularFactor":0.4840649664402008
				}
			},
			"name":"Steering_MAT",
			"normalTexture":{
				"index":16
			},
			"occlusionTexture":{
				"index":17
			},
			"pbrMetallicRoughness":{
				"baseColorTexture":{
					"index":18
				},
				"metallicFactor":0,
				"metallicRoughnessTexture":{
					"index":17
				}
			}
		},
		{
			"doubleSided":true,
			"emissiveFactor":[
				1,
				1,
				1
			],
			"emissiveTexture":{
				"index":19
			},
			"name":"New_Mat",
			"normalTexture":{
				"index":20
			},
			"occlusionTexture":{
				"index":21
			},
			"pbrMetallicRoughness":{
				"baseColorTexture":{
					"index":22
				},
				"metallicRoughnessTexture":{
					"index":21
				}
			}
		},
		{
			"doubleSided":true,
			"name":"GlassMat_New",
			"pbrMetallicRoughness":{
				"baseColorFactor":[
					0,
					0,
					0,
					1
				],
				"metallicFactor":0
			}
		},
		{
			"doubleSided":true,
			"emissiveFactor":[
				1,
				1,
				1
			],
			"emissiveTexture":{
				"index":23
			},
			"extensions":{
				"KHR_materials_specular":{
					"specularFactor":0
				}
			},
			"name":"New_Mat_01",
			"normalTexture":{
				"index":24
			},
			"occlusionTexture":{
				"index":25
			},
			"pbrMetallicRoughness":{
				"baseColorTexture":{
					"index":26
				},
				"metallicRoughnessTexture":{
					"index":25
				}
			}
		},
		{
			"doubleSided":true,
			"name":"White_New_Static",
			"pbrMetallicRoughness":{
				"metallicFactor":0
			}
		}
	],
	"meshes":[
		{
			"name":"Cessna_Exterior_Body_MAT_0_Body_MAT_0",
			"primitives":[
				{
					"attributes":{
						"POSITION":0,
						"NORMAL":1,
						"TEXCOORD_0":2,
						"TEXCOORD_1":3
					},
					"indices":4,
					"material":0
				}
			]
		},
		{
			"name":"Cessna_Exterior_Body_MAT_0.001_Body_MAT_0",
			"primitives":[
				{
					"attributes":{
						"POSITION":5,
						"NORMAL":6,
						"TEXCOORD_0":7,
						"TEXCOORD_1":8
					},
					"indices":9,
					"material":0
				}
			]
		},
		{
			"name":"Cessna_Exterior_Body_MAT_0.002_Body_MAT_0",
			"primitives":[
				{
					"attributes":{
						"POSITION":10,
						"NORMAL":11,
						"TEXCOORD_0":12,
						"TEXCOORD_1":13
					},
					"indices":14,
					"material":0
				}
			]
		},
		{
			"name":"Cessna_Exterior_Body_MAT_0.003_Body_MAT_0",
			"primitives":[
				{
					"attributes":{
						"POSITION":15,
						"NORMAL":16,
						"TEXCOORD_0":17,
						"TEXCOORD_1":18
					},
					"indices":19,
					"material":0
				}
			]
		},
		{
			"name":"Cessna_Exterior_Body_MAT_0.004_Body_MAT_0",
			"primitives":[
				{
					"attributes":{
						"POSITION":20,
						"NORMAL":21,
						"TEXCOORD_0":22,
						"TEXCOORD_1":23
					},
					"indices":24,
					"material":0
				}
			]
		},
		{
			"name":"Cessna_Exterior_Body_MAT_0.005_Body_MAT_0",
			"primitives":[
				{
					"attributes":{
						"POSITION":25,
						"NORMAL":26,
						"TEXCOORD_0":27,
						"TEXCOORD_1":28
					},
					"indices":29,
					"material":0
				}
			]
		},
		{
			"name":"Cessna_Exterior_Body_MAT_0.006_Body_MAT_0",
			"primitives":[
				{
					"attributes":{
						"POSITION":30,
						"NORMAL":31,
						"TEXCOORD_0":32,
						"TEXCOORD_1":33
					},
					"indices":34,
					"material":0
				}
			]
		},
		{
			"name":"Cessna_Exterior_Body_MAT_0.007_Body_MAT_0",
			"primitives":[
				{
					"attributes":{
						"POSITION":35,
						"NORMAL":36,
						"TEXCOORD_0":37,
						"TEXCOORD_1":38
					},
					"indices":39,
					"material":0
				}
			]
		},
		{
			"name":"Cessna_Exterior_Body_MAT_0.008_Body_MAT_0",
			"primitives":[
				{
					"attributes":{
						"POSITION":40,
						"NORMAL":41,
						"TEXCOORD_0":42,
						"TEXCOORD_1":43
					},
					"indices":44,
					"material":0
				}
			]
		},
		{
			"name":"Cessna_Exterior_Body_MAT_0.009_Body_MAT_0",
			"primitives":[
				{
					"attributes":{
						"POSITION":45,
						"NORMAL":46,
						"TEXCOORD_0":47,
						"TEXCOORD_1":48
					},
					"indices":49,
					"material":0
				}
			]
		},
		{
			"name":"Cessna_Exterior_Body_MAT_0.010_Body_MAT_0",
			"primitives":[
				{
					"attributes":{
						"POSITION":50,
						"NORMAL":51,
						"TEXCOORD_0":52,
						"TEXCOORD_1":53
					},
					"indices":54,
					"material":0
				}
			]
		},
		{
			"name":"Cessna_Exterior_Body_MAT_0.011_Body_MAT_0",
			"primitives":[
				{
					"attributes":{
						"POSITION":55,
						"NORMAL":56,
						"TEXCOORD_0":57,
						"TEXCOORD_1":58
					},
					"indices":59,
					"material":0
				}
			]
		},
		{
			"name":"Cessna_Exterior_Body_MAT_0.012_Body_MAT_0",
			"primitives":[
				{
					"attributes":{
						"POSITION":60,
						"NORMAL":61,
						"TEXCOORD_0":62,
						"TEXCOORD_1":63
					},
					"indices":64,
					"material":0
				}
			]
		},
		{
			"name":"Cessna_Exterior_Body_MAT_0.013_Body_MAT_0",
			"primitives":[
				{
					"attributes":{
						"POSITION":65,
						"NORMAL":66,
						"TEXCOORD_0":67,
						"TEXCOORD_1":68
					},
					"indices":69,
					"material":0
				}
			]
		},
		{
			"name":"Cessna_Exterior_Body_MAT_0.014_Body_MAT_0",
			"primitives":[
				{
					"attributes":{
						"POSITION":70,
						"NORMAL":71,
						"TEXCOORD_0":72,
						"TEXCOORD_1":73
					},
					"indices":74,
					"material":0
				}
			]
		},
		{
			"name":"Cessna_Exterior_Body_MAT_0.015_Body_MAT_0",
			"primitives":[
				{
					"attributes":{
						"POSITION":75,
						"NORMAL":76,
						"TEXCOORD_0":77,
						"TEXCOORD_1":78
					},
					"indices":79,
					"material":0
				}
			]
		},
		{
			"name":"Cessna_Exterior_Body_MAT_0.016_Body_MAT_0",
			"primitives":[
				{
					"attributes":{
						"POSITION":80,
						"NORMAL":81,
						"TEXCOORD_0":82,
						"TEXCOORD_1":83
					},
					"indices":84,
					"material":0
				}
			]
		},
		{
			"name":"Cessna_Exterior_Body_MAT_0.017_Body_MAT_0",
			"primitives":[
				{
					"attributes":{
						"POSITION":85,
						"NORMAL":86,
						"TEXCOORD_0":87,
						"TEXCOORD_1":88
					},
					"indices":89,
					"material":0
				}
			]
		},
		{
			"name":"Cessna_Exterior_Body_MAT_0.018_Body_MAT_0",
			"primitives":[
				{
					"attributes":{
						"POSITION":90,
						"NORMAL":91,
						"TEXCOORD_0":92,
						"TEXCOORD_1":93
					},
					"indices":94,
					"material":0
				}
			]
		},
		{
			"name":"Cessna_Exterior_Body_MAT_0.019_Body_MAT_0",
			"primitives":[
				{
					"attributes":{
						"POSITION":95,
						"NORMAL":96,
						"TEXCOORD_0":97,
						"TEXCOORD_1":98
					},
					"indices":99,
					"material":0
				}
			]
		},
		{
			"name":"Cessna_Exterior_Body_MAT_0.020_Body_MAT_0",
			"primitives":[
				{
					"attributes":{
						"POSITION":100,
						"NORMAL":101,
						"TEXCOORD_0":102,
						"TEXCOORD_1":103
					},
					"indices":104,
					"material":0
				}
			]
		},
		{
			"name":"Cessna_Exterior_Body_MAT_0.021_Body_MAT_0",
			"primitives":[
				{
					"attributes":{
						"POSITION":105,
						"NORMAL":106,
						"TEXCOORD_0":107,
						"TEXCOORD_1":108
					},
					"indices":109,
					"material":0
				}
			]
		},
		{
			"name":"Cessna_Exterior_Body_MAT_0.022_Body_MAT_0",
			"primitives":[
				{
					"attributes":{
						"POSITION":110,
						"NORMAL":111,
						"TEXCOORD_0":112,
						"TEXCOORD_1":113
					},
					"indices":114,
					"material":0
				}
			]
		},
		{
			"name":"Cessna_Exterior_Body_MAT_0.023_Body_MAT_0",
			"primitives":[
				{
					"attributes":{
						"POSITION":115,
						"NORMAL":116,
						"TEXCOORD_0":117,
						"TEXCOORD_1":118
					},
					"indices":119,
					"material":0
				}
			]
		},
		{
			"name":"Cessna_Exterior_Body_MAT_0.024_Body_MAT_0",
			"primitives":[
				{
					"attributes":{
						"POSITION":120,
						"NORMAL":121,
						"TEXCOORD_0":122,
						"TEXCOORD_1":123
					},
					"indices":124,
					"material":0
				}
			]
		},
		{
			"name":"Cessna_Exterior_Body_MAT_0.025_Body_MAT_0",
			"primitives":[
				{
					"attributes":{
						"POSITION":125,
						"NORMAL":126,
						"TEXCOORD_0":127,
						"TEXCOORD_1":128
					},
					"indices":129,
					"material":0
				}
			]
		},
		{
			"name":"Cessna_Exterior_Body_MAT_0.026_Body_MAT_0",
			"primitives":[
				{
					"attributes":{
						"POSITION":130,
						"NORMAL":131,
						"TEXCOORD_0":132,
						"TEXCOORD_1":133
					},
					"indices":134,
					"material":0
				}
			]
		},
		{
			"name":"Cessna_Exterior_Glass_MAT_0_Glass_MAT_0",
			"primitives":[
				{
					"attributes":{
						"POSITION":135,
						"NORMAL":136,
						"TEXCOORD_0":137
					},
					"indices":138,
					"material":1
				}
			]
		},
		{
			"name":"Cessna_Interior_ButtonPlate_MAT_0_ButtonPlate_MAT_0",
			"primitives":[
				{
					"attributes":{
						"POSITION":139,
						"NORMAL":140,
						"TEXCOORD_0":141
					},
					"indices":142,
					"material":2
				}
			]
		},
		{
			"name":"Cessna_Interior_Buttons_MAT_0_Buttons_MAT_0",
			"primitives":[
				{
					"attributes":{
						"POSITION":143,
						"NORMAL":144,
						"TEXCOORD_0":145
					},
					"indices":146,
					"material":3
				}
			]
		},
		{
			"name":"Cessna_Interior_Interior_Body_MAT_0_Interior_Body_MAT_0",
			"primitives":[
				{
					"attributes":{
						"POSITION":147,
						"NORMAL":148,
						"TEXCOORD_0":149,
						"TEXCOORD_1":150
					},
					"indices":151,
					"material":4
				}
			]
		},
		{
			"name":"Cessna_Interior_Meter_01_MAT_0_Meter_01_MAT_0",
			"primitives":[
				{
					"attributes":{
						"POSITION":152,
						"NORMAL":153,
						"TEXCOORD_0":154,
						"TEXCOORD_1":155
					},
					"indices":156,
					"material":5
				}
			]
		},
		{
			"name":"Cessna_Interior_MI_Glass1_0_MI_Glass1_0",
			"primitives":[
				{
					"attributes":{
						"POSITION":157,
						"NORMAL":158,
						"TEXCOORD_0":159
					},
					"indices":160,
					"material":6
				}
			]
		},
		{
			"name":"Cessna_Interior_Paddle_MAT_0_Paddle_MAT_0",
			"primitives":[
				{
					"attributes":{
						"POSITION":161,
						"NORMAL":162,
						"TEXCOORD_0":163,
						"TEXCOORD_1":164
					},
					"indices":165,
					"material":7
				}
			]
		},
		{
			"name":"Cessna_Interior_SeatBelt_MAT_0_SeatBelt_MAT_0",
			"primitives":[
				{
					"attributes":{
						"POSITION":166,
						"NORMAL":167,
						"TEXCOORD_0":168,
						"TEXCOORD_1":169
					},
					"indices":170,
					"material":8
				}
			]
		},
		{
			"name":"Cessna_Interior_SeatGear_MAT_0_SeatGear_MAT_0",
			"primitives":[
				{
					"attributes":{
						"POSITION":171,
						"NORMAL":172,
						"TEXCOORD_0":173
					},
					"indices":174,
					"material":9
				}
			]
		},
		{
			"name":"Cessna_Interior_Seats_MAT_0_Seats_MAT_0",
			"primitives":[
				{
					"attributes":{
						"POSITION":175,
						"NORMAL":176,
						"TEXCOORD_0":177,
						"TEXCOORD_1":178
					},
					"indices":179,
					"material":10
				}
			]
		},
		{
			"name":"Cessna_Interior_Steering_MAT_0_Steering_MAT_0",
			"primitives":[
				{
					"attributes":{
						"POSITION":180,
						"NORMAL":181,
						"TEXCOORD_0":182,
						"TEXCOORD_1":183
					},
					"indices":184,
					"material":11
				}
			]
		},
		{
			"name":"Cessna_Interior_Steering_MAT_0.001_Steering_MAT_0",
			"primitives":[
				{
					"attributes":{
						"POSITION":185,
						"NORMAL":186,
						"TEXCOORD_0":187,
						"TEXCOORD_1":188
					},
					"indices":189,
					"material":11
				}
			]
		},
		{
			"name":"Dynamic_Switch_001_New_Mat_0_New_Mat_0",
			"primitives":[
				{
					"attributes":{
						"POSITION":190,
						"NORMAL":191,
						"TEXCOORD_0":192,
						"TEXCOORD_1":193,
						"TEXCOORD_2":194
					},
					"indices":195,
					"material":12
				}
			]
		},
		{
			"name":"Dynamic_Switch_002_New_Mat_0_New_Mat_0",
			"primitives":[
				{
					"attributes":{
						"POSITION":196,
						"NORMAL":197,
						"TEXCOORD_0":198,
						"TEXCOORD_1":199,
						"TEXCOORD_2":200
					},
					"indices":201,
					"material":12
				}
			]
		},
		{
			"name":"Dynamic_Switch_003_New_Mat_0_New_Mat_0",
			"primitives":[
				{
					"attributes":{
						"POSITION":202,
						"NORMAL":203,
						"TEXCOORD_0":204,
						"TEXCOORD_1":205,
						"TEXCOORD_2":206
					},
					"indices":207,
					"material":12
				}
			]
		},
		{
			"name":"Dynamic_Switch_004_New_Mat_0_New_Mat_0",
			"primitives":[
				{
					"attributes":{
						"POSITION":208,
						"NORMAL":209,
						"TEXCOORD_0":210,
						"TEXCOORD_1":211,
						"TEXCOORD_2":212
					},
					"indices":213,
					"material":12
				}
			]
		},
		{
			"name":"Dynamic_Switch_005_New_Mat_0_New_Mat_0",
			"primitives":[
				{
					"attributes":{
						"POSITION":214,
						"NORMAL":215,
						"TEXCOORD_0":216,
						"TEXCOORD_1":217,
						"TEXCOORD_2":218
					},
					"indices":219,
					"material":12
				}
			]
		},
		{
			"name":"Dynamic_Switch_006_New_Mat_0_New_Mat_0",
			"primitives":[
				{
					"attributes":{
						"POSITION":220,
						"NORMAL":221,
						"TEXCOORD_0":222,
						"TEXCOORD_1":223,
						"TEXCOORD_2":224
					},
					"indices":225,
					"material":12
				}
			]
		},
		{
			"name":"Dynamic_Switch_007_New_Mat_0_New_Mat_0",
			"primitives":[
				{
					"attributes":{
						"POSITION":226,
						"NORMAL":227,
						"TEXCOORD_0":228,
						"TEXCOORD_1":229,
						"TEXCOORD_2":230
					},
					"indices":231,
					"material":12
				}
			]
		},
		{
			"name":"Dynamic_Switch_008_New_Mat_0_New_Mat_0",
			"primitives":[
				{
					"attributes":{
						"POSITION":232,
						"NORMAL":233,
						"TEXCOORD_0":234,
						"TEXCOORD_1":235,
						"TEXCOORD_2":236
					},
					"indices":237,
					"material":12
				}
			]
		},
		{
			"name":"GlassPartNew_GlassMat_New_0_GlassMat_New_0",
			"primitives":[
				{
					"attributes":{
						"POSITION":238,
						"NORMAL":239,
						"TEXCOORD_0":240
					},
					"indices":241,
					"material":13
				}
			]
		},
		{
			"name":"Static_Base_New_Mat_0_New_Mat_0",
			"primitives":[
				{
					"attributes":{
						"POSITION":242,
						"NORMAL":243,
						"TEXCOORD_0":244,
						"TEXCOORD_1":245,
						"TEXCOORD_2":246
					},
					"indices":247,
					"material":12
				}
			]
		},
		{
			"name":"Static_Display_New_Mat_01_0_New_Mat_01_0",
			"primitives":[
				{
					"attributes":{
						"POSITION":248,
						"NORMAL":249,
						"TEXCOORD_0":250,
						"TEXCOORD_1":251,
						"TEXCOORD_2":252
					},
					"indices":253,
					"material":14
				}
			]
		},
		{
			"name":"Static_TXT_White_New_Static_0_White_New_Static_0",
			"primitives":[
				{
					"attributes":{
						"POSITION":254,
						"NORMAL":255,
						"TEXCOORD_0":256
					},
					"indices":257,
					"material":15
				}
			]
		}
	],
	"textures":[
		{
			"sampler":0,
			"source":0
		},
		{
			"sampler":0,
			"source":1
		},
		{
			"sampler":0,
			"source":2
		},
		{
			"sampler":0,
			"source":3
		},
		{
			"sampler":0,
			"source":4
		},
		{
			"sampler":0,
			"source":5
		},
		{
			"sampler":0,
			"source":6
		},
		{
			"sampler":0,
			"source":7
		},
		{
			"sampler":0,
			"source":8
		},
		{
			"sampler":0,
			"source":9
		},
		{
			"sampler":0,
			"source":10
		},
		{
			"sampler":0,
			"source":11
		},
		{
			"sampler":0,
			"source":12
		},
		{
			"sampler":0,
			"source":13
		},
		{
			"sampler":0,
			"source":14
		},
		{
			"sampler":0,
			"source":15
		},
		{
			"sampler":0,
			"source":16
		},
		{
			"sampler":0,
			"source":17
		},
		{
			"sampler":0,
			"source":18
		},
		{
			"sampler":0,
			"source":19
		},
		{
			"sampler":0,
			"source":20
		},
		{
			"sampler":0,
			"source":21
		},
		{
			"sampler":0,
			"source":22
		},
		{
			"sampler":0,
			"source":23
		},
		{
			"sampler":0,
			"source":24
		},
		{
			"sampler":0,
			"source":21
		},
		{
			"sampler":0,
			"source":25
		}
	],
	"images":[
		{
			"mimeType":"image/png",
			"name":"Body_MAT_baseColor",
			"uri":"Body_MAT_baseColor.png"
		},
		{
			"mimeType":"image/png",
			"name":"Body_MAT_metallicRoughness",
			"uri":"Body_MAT_metallicRoughness.png"
		},
		{
			"mimeType":"image/png",
			"name":"Interior_Body_MAT_normal",
			"uri":"Interior_Body_MAT_normal.png"
		},
		{
			"mimeType":"image/png",
			"name":"Interior_Body_MAT_metallicRoughness",
			"uri":"Interior_Body_MAT_metallicRoughness.png"
		},
		{
			"mimeType":"image/png",
			"name":"Interior_Body_MAT_baseColor",
			"uri":"Interior_Body_MAT_baseColor.png"
		},
		{
			"mimeType":"image/png",
			"name":"Meter_01_MAT_normal",
			"uri":"Meter_01_MAT_normal.png"
		},
		{
			"mimeType":"image/png",
			"name":"Meter_01_MAT_metallicRoughness",
			"uri":"Meter_01_MAT_metallicRoughness.png"
		},
		{
			"mimeType":"image/png",
			"name":"Meter_01_MAT_baseColor",
			"uri":"Meter_01_MAT_baseColor.png"
		},
		{
			"mimeType":"image/png",
			"name":"Paddle_MAT_normal",
			"uri":"Paddle_MAT_normal.png"
		},
		{
			"mimeType":"image/png",
			"name":"Paddle_MAT_baseColor",
			"uri":"Paddle_MAT_baseColor.png"
		},
		{
			"mimeType":"image/png",
			"name":"SeatBelt_MAT_normal",
			"uri":"SeatBelt_MAT_normal.png"
		},
		{
			"mimeType":"image/png",
			"name":"SeatBelt_MAT_baseColor",
			"uri":"SeatBelt_MAT_baseColor.png"
		},
		{
			"mimeType":"image/png",
			"name":"SeatGear_MAT_baseColor",
			"uri":"SeatGear_MAT_baseColor.png"
		},
		{
			"mimeType":"image/png",
			"name":"Seats_MAT_normal",
			"uri":"Seats_MAT_normal.png"
		},
		{
			"mimeType":"image/png",
			"name":"Seats_MAT_metallicRoughness",
			"uri":"Seats_MAT_metallicRoughness.png"
		},
		{
			"mimeType":"image/png",
			"name":"Seats_MAT_baseColor",
			"uri":"Seats_MAT_baseColor.png"
		},
		{
			"mimeType":"image/png",
			"name":"Steering_MAT_normal",
			"uri":"Steering_MAT_normal.png"
		},
		{
			"mimeType":"image/png",
			"name":"Steering_MAT_metallicRoughness",
			"uri":"Steering_MAT_metallicRoughness.png"
		},
		{
			"mimeType":"image/png",
			"name":"Steering_MAT_baseColor",
			"uri":"Steering_MAT_baseColor.png"
		},
		{
			"mimeType":"image/png",
			"name":"New_Mat_emissive",
			"uri":"New_Mat_emissive.png"
		},
		{
			"mimeType":"image/png",
			"name":"New_Mat_normal",
			"uri":"New_Mat_normal.png"
		},
		{
			"mimeType":"image/png",
			"name":"New_Mat_01_metallicRoughness",
			"uri":"New_Mat_01_metallicRoughness.png"
		},
		{
			"mimeType":"image/png",
			"name":"New_Mat_baseColor",
			"uri":"New_Mat_baseColor.png"
		},
		{
			"mimeType":"image/png",
			"name":"New_Mat_01_emissive",
			"uri":"New_Mat_01_emissive.png"
		},
		{
			"mimeType":"image/png",
			"name":"New_Mat_01_normal",
			"uri":"New_Mat_01_normal.png"
		},
		{
			"mimeType":"image/png",
			"name":"New_Mat_01_baseColor",
			"uri":"New_Mat_01_baseColor.png"
		}
	],
	"accessors":[
		{
			"bufferView":0,
			"componentType":5126,
			"count":3370,
			"max":[
				58.89185333251953,
				76.4546127319336,
				175.61436462402344
			],
			"min":[
				-58.8900032043457,
				-85.09052276611328,
				-209.78561401367188
			],
			"type":"VEC3"
		},
		{
			"bufferView":1,
			"componentType":5126,
			"count":3370,
			"type":"VEC3"
		},
		{
			"bufferView":2,
			"componentType":5126,
			"count":3370,
			"type":"VEC2"
		},
		{
			"bufferView":3,
			"componentType":5126,
			"count":3370,
			"type":"VEC2"
		},
		{
			"bufferView":4,
			"componentType":5123,
			"count":13929,
			"type":"SCALAR"
		},
		{
			"bufferView":5,
			"componentType":5126,
			"count":166,
			"max":[
				6.721246242523193,
				101.14665222167969,
				-210.7801055908203
			],
			"min":[
				-6.719396114349365,
				-101.14732360839844,
				-221.9649658203125
			],
			"type":"VEC3"
		},
		{
			"bufferView":6,
			"componentType":5126,
			"count":166,
			"type":"VEC3"
		},
		{
			"bufferView":7,
			"componentType":5126,
			"count":166,
			"type":"VEC2"
		},
		{
			"bufferView":8,
			"componentType":5126,
			"count":166,
			"type":"VEC2"
		},
		{
			"bufferView":9,
			"componentType":5123,
			"count":636,
			"type":"SCALAR"
		},
		{
			"bufferView":10,
			"componentType":5126,
			"count":492,
			"max":[
				554.9508666992188,
				-60.522220611572266,
				83.21143341064453
			],
			"min":[
				56.3917121887207,
				-90.07017517089844,
				-49.94672393798828
			],
			"type":"VEC3"
		},
		{
			"bufferView":11,
			"componentType":5126,
			"count":492,
			"type":"VEC3"
		},
		{
			"bufferView":12,
			"componentType":5126,
			"count":492,
			"type":"VEC2"
		},
		{
			"bufferView":13,
			"componentType":5126,
			"count":492,
			"type":"VEC2"
		},
		{
			"bufferView":14,
			"componentType":5123,
			"count":1584,
			"type":"SCALAR"
		},
		{
			"bufferView":15,
			"componentType":5126,
			"count":53,
			"max":[
				257.6562805175781,
				48.882137298583984,
				-17.325647354125977
			],
			"min":[
				56.101688385009766,
				-69.95929718017578,
				-55.133384704589844
			],
			"type":"VEC3"
		},
		{
			"bufferView":16,
			"componentType":5126,
			"count":53,
			"type":"VEC3"
		},
		{
			"bufferView":17,
			"componentType":5126,
			"count":53,
			"type":"VEC2"
		},
		{
			"bufferView":18,
			"componentType":5126,
			"count":53,
			"type":"VEC2"
		},
		{
			"bufferView":19,
			"componentType":5123,
			"count":228,
			"type":"SCALAR"
		},
		{
			"bufferView":20,
			"componentType":5126,
			"count":438,
			"max":[
				-56.389862060546875,
				-61.70071792602539,
				85.92438507080078
			],
			"min":[
				-554.948974609375,
				-90.07017517089844,
				-49.94672393798828
			],
			"type":"VEC3"
		},
		{
			"bufferView":21,
			"componentType":5126,
			"count":438,
			"type":"VEC3"
		},
		{
			"bufferView":22,
			"componentType":5126,
			"count":438,
			"type":"VEC2"
		},
		{
			"bufferView":23,
			"componentType":5126,
			"count":438,
			"type":"VEC2"
		},
		{
			"bufferView":24,
			"componentType":5123,
			"count":1524,
			"type":"SCALAR"
		},
		{
			"bufferView":25,
			"componentType":5126,
			"count":53,
			"max":[
				-56.09983825683594,
				48.882137298583984,
				-17.325647354125977
			],
			"min":[
				-257.6544494628906,
				-69.95929718017578,
				-55.133384704589844
			],
			"type":"VEC3"
		},
		{
			"bufferView":26,
			"componentType":5126,
			"count":53,
			"type":"VEC3"
		},
		{
			"bufferView":27,
			"componentType":5126,
			"count":53,
			"type":"VEC2"
		},
		{
			"bufferView":28,
			"componentType":5126,
			"count":53,
			"type":"VEC2"
		},
		{
			"bufferView":29,
			"componentType":5123,
			"count":228,
			"type":"SCALAR"
		},
		{
			"bufferView":30,
			"componentType":5126,
			"count":122,
			"max":[
				52.27632522583008,
				-42.6961555480957,
				237.6791534423828
			],
			"min":[
				-52.27447509765625,
				-114.97935485839844,
				20.821401596069336
			],
			"type":"VEC3"
		},
		{
			"bufferView":31,
			"componentType":5126,
			"count":122,
			"type":"VEC3"
		},
		{
			"bufferView":32,
			"componentType":5126,
			"count":122,
			"type":"VEC2"
		},
		{
			"bufferView":33,
			"componentType":5126,
			"count":122,
			"type":"VEC2"
		},
		{
			"bufferView":34,
			"componentType":5123,
			"count":318,
			"type":"SCALAR"
		},
		{
			"bufferView":35,
			"componentType":5126,
			"count":309,
			"max":[
				50.498069763183594,
				-14.316988945007324,
				549.0226440429688
			],
			"min":[
				-50.496219635009766,
				-183.76467895507812,
				177.32186889648438
			],
			"type":"VEC3"
		},
		{
			"bufferView":36,
			"componentType":5126,
			"count":309,
			"type":"VEC3"
		},
		{
			"bufferView":37,
			"componentType":5126,
			"count":309,
			"type":"VEC2"
		},
		{
			"bufferView":38,
			"componentType":5126,
			"count":309,
			"type":"VEC2"
		},
		{
			"bufferView":39,
			"componentType":5123,
			"count":888,
			"type":"SCALAR"
		},
		{
			"bufferView":40,
			"componentType":5126,
			"count":237,
			"max":[
				4.856189250946045,
				174.84422302246094,
				46.25128173828125
			],
			"min":[
				-5.036411762237549,
				0.016571044921875,
				-52.908233642578125
			],
			"type":"VEC3"
		},
		{
			"bufferView":41,
			"componentType":5126,
			"count":237,
			"type":"VEC3"
		},
		{
			"bufferView":42,
			"componentType":5126,
			"count":237,
			"type":"VEC2"
		},
		{
			"bufferView":43,
			"componentType":5126,
			"count":237,
			"type":"VEC2"
		},
		{
			"bufferView":44,
			"componentType":5123,
			"count":744,
			"type":"SCALAR"
		},
		{
			"bufferView":45,
			"componentType":5126,
			"count":33,
			"max":[
				2.7498106956481934,
				-179.4879913330078,
				514.5392456054688
			],
			"min":[
				-2.747960329055786,
				-188.93841552734375,
				509.0414123535156
			],
			"type":"VEC3"
		},
		{
			"bufferView":46,
			"componentType":5126,
			"count":33,
			"type":"VEC3"
		},
		{
			"bufferView":47,
			"componentType":5126,
			"count":33,
			"type":"VEC2"
		},
		{
			"bufferView":48,
			"componentType":5126,
			"count":33,
			"type":"VEC2"
		},
		{
			"bufferView":49,
			"componentType":5123,
			"count":168,
			"type":"SCALAR"
		},
		{
			"bufferView":50,
			"componentType":5126,
			"count":114,
			"max":[
				175.7613067626953,
				-18.790184020996094,
				468.2001647949219
			],
			"min":[
				-0.03823874890804291,
				-31.953813552856445,
				394.1202087402344
			],
			"type":"VEC3"
		},
		{
			"bufferView":51,
			"componentType":5126,
			"count":114,
			"type":"VEC3"
		},
		{
			"bufferView":52,
			"componentType":5126,
			"count":114,
			"type":"VEC2"
		},
		{
			"bufferView":53,
			"componentType":5126,
			"count":114,
			"type":"VEC2"
		},
		{
			"bufferView":54,
			"componentType":5123,
			"count":462,
			"type":"SCALAR"
		},
		{
			"bufferView":55,
			"componentType":5126,
			"count":119,
			"max":[
				0.040089141577482224,
				-18.790184020996094,
				474.5814514160156
			],
			"min":[
				-175.7594451904297,
				-31.953813552856445,
				394.1202087402344
			],
			"type":"VEC3"
		},
		{
			"bufferView":56,
			"componentType":5126,
			"count":119,
			"type":"VEC3"
		},
		{
			"bufferView":57,
			"componentType":5126,
			"count":119,
			"type":"VEC2"
		},
		{
			"bufferView":58,
			"componentType":5126,
			"count":119,
			"type":"VEC2"
		},
		{
			"bufferView":59,
			"componentType":5123,
			"count":465,
			"type":"SCALAR"
		},
		{
			"bufferView":60,
			"componentType":5126,
			"count":131,
			"max":[
				-6.003859996795654,
				-22.84972381591797,
				517.8307495117188
			],
			"min":[
				-175.69805908203125,
				-31.347885131835938,
				452.18359375
			],
			"type":"VEC3"
		},
		{
			"bufferView":61,
			"componentType":5126,
			"count":131,
			"type":"VEC3"
		},
		{
			"bufferView":62,
			"componentType":5126,
			"count":131,
			"type":"VEC2"
		},
		{
			"bufferView":63,
			"componentType":5126,
			"count":131,
			"type":"VEC2"
		},
		{
			"bufferView":64,
			"componentType":5123,
			"count":441,
			"type":"SCALAR"
		},
		{
			"bufferView":65,
			"componentType":5126,
			"count":132,
			"max":[
				175.6999053955078,
				-22.686565399169922,
				517.8307495117188
			],
			"min":[
				6.005710601806641,
				-31.377605438232422,
				452.42596435546875
			],
			"type":"VEC3"
		},
		{
			"bufferView":66,
			"componentType":5126,
			"count":132,
			"type":"VEC3"
		},
		{
			"bufferView":67,
			"componentType":5126,
			"count":132,
			"type":"VEC2"
		},
		{
			"bufferView":68,
			"componentType":5126,
			"count":132,
			"type":"VEC2"
		},
		{
			"bufferView":69,
			"componentType":5123,
			"count":444,
			"type":"SCALAR"
		},
		{
			"bufferView":70,
			"componentType":5126,
			"count":19,
			"max":[
				532.6337280273438,
				-68.6121826171875,
				115.3571548461914
			],
			"min":[
				257.6499328613281,
				-87.60279083251953,
				41.877647399902344
			],
			"type":"VEC3"
		},
		{
			"bufferView":71,
			"componentType":5126,
			"count":19,
			"type":"VEC3"
		},
		{
			"bufferView":72,
			"componentType":5126,
			"count":19,
			"type":"VEC2"
		},
		{
			"bufferView":73,
			"componentType":5126,
			"count":19,
			"type":"VEC2"
		},
		{
			"bufferView":74,
			"componentType":5123,
			"count":33,
			"type":"SCALAR"
		},
		{
			"bufferView":75,
			"componentType":5126,
			"count":41,
			"max":[
				-257.64385986328125,
				-68.6121826171875,
				115.3571548461914
			],
			"min":[
				-532.6318969726562,
				-87.60279083251953,
				41.877647399902344
			],
			"type":"VEC3"
		},
		{
			"bufferView":76,
			"componentType":5126,
			"count":41,
			"type":"VEC3"
		},
		{
			"bufferView":77,
			"componentType":5126,
			"count":41,
			"type":"VEC2"
		},
		{
			"bufferView":78,
			"componentType":5126,
			"count":41,
			"type":"VEC2"
		},
		{
			"bufferView":79,
			"componentType":5123,
			"count":63,
			"type":"SCALAR"
		},
		{
			"bufferView":80,
			"componentType":5126,
			"count":89,
			"max":[
				257.6562805175781,
				-63.15275955200195,
				115.3571548461914
			],
			"min":[
				56.406532287597656,
				-76.94536590576172,
				56.418121337890625
			],
			"type":"VEC3"
		},
		{
			"bufferView":81,
			"componentType":5126,
			"count":89,
			"type":"VEC3"
		},
		{
			"bufferView":82,
			"componentType":5126,
			"count":89,
			"type":"VEC2"
		},
		{
			"bufferView":83,
			"componentType":5126,
			"count":89,
			"type":"VEC2"
		},
		{
			"bufferView":84,
			"componentType":5123,
			"count":183,
			"type":"SCALAR"
		},
		{
			"bufferView":85,
			"componentType":5126,
			"count":88,
			"max":[
				-56.40468215942383,
				-63.15275955200195,
				115.3571548461914
			],
			"min":[
				-257.6544494628906,
				-76.94536590576172,
				58.15847396850586
			],
			"type":"VEC3"
		},
		{
			"bufferView":86,
			"componentType":5126,
			"count":88,
			"type":"VEC3"
		},
		{
			"bufferView":87,
			"componentType":5126,
			"count":88,
			"type":"VEC2"
		},
		{
			"bufferView":88,
			"componentType":5126,
			"count":88,
			"type":"VEC2"
		},
		{
			"bufferView":89,
			"componentType":5123,
			"count":192,
			"type":"SCALAR"
		},
		{
			"bufferView":90,
			"componentType":5126,
			"count":383,
			"max":[
				47.18289566040039,
				42.542633056640625,
				473.4931640625
			],
			"min":[
				-47.18104553222656,
				-45.2533073425293,
				171.1422882080078
			],
			"type":"VEC3"
		},
		{
			"bufferView":91,
			"componentType":5126,
			"count":383,
			"type":"VEC3"
		},
		{
			"bufferView":92,
			"componentType":5126,
			"count":383,
			"type":"VEC2"
		},
		{
			"bufferView":93,
			"componentType":5126,
			"count":383,
			"type":"VEC2"
		},
		{
			"bufferView":94,
			"componentType":5123,
			"count":1374,
			"type":"SCALAR"
		},
		{
			"bufferView":95,
			"componentType":5126,
			"count":231,
			"max":[
				5.482819080352783,
				89.79777526855469,
				-111.70191192626953
			],
			"min":[
				-8.49553394317627,
				61.62179946899414,
				-142.01345825195312
			],
			"type":"VEC3"
		},
		{
			"bufferView":96,
			"componentType":5126,
			"count":231,
			"type":"VEC3"
		},
		{
			"bufferView":97,
			"componentType":5126,
			"count":231,
			"type":"VEC2"
		},
		{
			"bufferView":98,
			"componentType":5126,
			"count":231,
			"type":"VEC2"
		},
		{
			"bufferView":99,
			"componentType":5123,
			"count":492,
			"type":"SCALAR"
		},
		{
			"bufferView":100,
			"componentType":5126,
			"count":184,
			"max":[
				112.63114166259766,
				97.06103515625,
				46.9485969543457
			],
			"min":[
				-112.62928771972656,
				54.14564895629883,
				18.186634063720703
			],
			"type":"VEC3"
		},
		{
			"bufferView":101,
			"componentType":5126,
			"count":184,
			"type":"VEC3"
		},
		{
			"bufferView":102,
			"componentType":5126,
			"count":184,
			"type":"VEC2"
		},
		{
			"bufferView":103,
			"componentType":5126,
			"count":184,
			"type":"VEC2"
		},
		{
			"bufferView":104,
			"componentType":5123,
			"count":528,
			"type":"SCALAR"
		},
		{
			"bufferView":105,
			"componentType":5126,
			"count":562,
			"max":[
				10.671512603759766,
				129.05999755859375,
				-86.7802963256836
			],
			"min":[
				-10.669662475585938,
				88.57015228271484,
				-168.75830078125
			],
			"type":"VEC3"
		},
		{
			"bufferView":106,
			"componentType":5126,
			"count":562,
			"type":"VEC3"
		},
		{
			"bufferView":107,
			"componentType":5126,
			"count":562,
			"type":"VEC2"
		},
		{
			"bufferView":108,
			"componentType":5126,
			"count":562,
			"type":"VEC2"
		},
		{
			"bufferView":109,
			"componentType":5123,
			"count":2442,
			"type":"SCALAR"
		},
		{
			"bufferView":110,
			"componentType":5126,
			"count":578,
			"max":[
				139.04244995117188,
				115.32865142822266,
				81.49140930175781
			],
			"min":[
				112.26066589355469,
				68.8153076171875,
				-9.538620948791504
			],
			"type":"VEC3"
		},
		{
			"bufferView":111,
			"componentType":5126,
			"count":578,
			"type":"VEC3"
		},
		{
			"bufferView":112,
			"componentType":5126,
			"count":578,
			"type":"VEC2"
		},
		{
			"bufferView":113,
			"componentType":5126,
			"count":578,
			"type":"VEC2"
		},
		{
			"bufferView":114,
			"componentType":5123,
			"count":2502,
			"type":"SCALAR"
		},
		{
			"bufferView":115,
			"componentType":5126,
			"count":588,
			"max":[
				-112.25881958007812,
				115.32865142822266,
				81.49140930175781
			],
			"min":[
				-139.0406036376953,
				68.8153076171875,
				-9.538620948791504
			],
			"type":"VEC3"
		},
		{
			"bufferView":116,
			"componentType":5126,
			"count":588,
			"type":"VEC3"
		},
		{
			"bufferView":117,
			"componentType":5126,
			"count":588,
			"type":"VEC2"
		},
		{
			"bufferView":118,
			"componentType":5126,
			"count":588,
			"type":"VEC2"
		},
		{
			"bufferView":119,
			"componentType":5123,
			"count":2502,
			"type":"SCALAR"
		},
		{
			"bufferView":120,
			"componentType":5126,
			"count":76,
			"max":[
				14.748796463012695,
				14.748167991638184,
				-209.78561401367188
			],
			"min":[
				-14.746946334838867,
				-14.748842239379883,
				-249.906005859375
			],
			"type":"VEC3"
		},
		{
			"bufferView":121,
			"componentType":5126,
			"count":76,
			"type":"VEC3"
		},
		{
			"bufferView":122,
			"componentType":5126,
			"count":76,
			"type":"VEC2"
		},
		{
			"bufferView":123,
			"componentType":5126,
			"count":76,
			"type":"VEC2"
		},
		{
			"bufferView":124,
			"componentType":5123,
			"count":360,
			"type":"SCALAR"
		},
		{
			"bufferView":125,
			"componentType":5126,
			"count":92,
			"max":[
				553.8076782226562,
				-79.47765350341797,
				-19.941650390625
			],
			"min":[
				551.16357421875,
				-83.2781982421875,
				-23.705381393432617
			],
			"type":"VEC3"
		},
		{
			"bufferView":126,
			"componentType":5126,
			"count":92,
			"type":"VEC3"
		},
		{
			"bufferView":127,
			"componentType":5126,
			"count":92,
			"type":"VEC2"
		},
		{
			"bufferView":128,
			"componentType":5126,
			"count":92,
			"type":"VEC2"
		},
		{
			"bufferView":129,
			"componentType":5123,
			"count":120,
			"type":"SCALAR"
		},
		{
			"bufferView":130,
			"componentType":5126,
			"count":92,
			"max":[
				-551.1617431640625,
				-79.47765350341797,
				-19.941650390625
			],
			"min":[
				-553.8058471679688,
				-83.2781982421875,
				-23.705381393432617
			],
			"type":"VEC3"
		},
		{
			"bufferView":131,
			"componentType":5126,
			"count":92,
			"type":"VEC3"
		},
		{
			"bufferView":132,
			"componentType":5126,
			"count":92,
			"type":"VEC2"
		},
		{
			"bufferView":133,
			"componentType":5126,
			"count":92,
			"type":"VEC2"
		},
		{
			"bufferView":134,
			"componentType":5123,
			"count":120,
			"type":"SCALAR"
		},
		{
			"bufferView":135,
			"componentType":5126,
			"count":1884,
			"max":[
				56.435306549072266,
				-21.992900848388672,
				173.060791015625
			],
			"min":[
				-56.435184478759766,
				-80.11168670654297,
				-96.02320098876953
			],
			"type":"VEC3"
		},
		{
			"bufferView":136,
			"componentType":5126,
			"count":1884,
			"type":"VEC3"
		},
		{
			"bufferView":137,
			"componentType":5126,
			"count":1884,
			"type":"VEC2"
		},
		{
			"bufferView":138,
			"componentType":5123,
			"count":7704,
			"type":"SCALAR"
		},
		{
			"bufferView":139,
			"componentType":5126,
			"count":26949,
			"max":[
				0.043748706579208374,
				-0.009283900260925293,
				0.08013179153203964
			],
			"min":[
				-0.03828610107302666,
				-0.07529400289058685,
				-0.07937599718570709
			],
			"type":"VEC3"
		},
		{
			"bufferView":140,
			"componentType":5126,
			"count":26949,
			"type":"VEC3"
		},
		{
			"bufferView":141,
			"componentType":5126,
			"count":26949,
			"type":"VEC2"
		},
		{
			"bufferView":142,
			"componentType":5123,
			"count":117444,
			"type":"SCALAR"
		},
		{
			"bufferView":143,
			"componentType":5126,
			"count":26939,
			"max":[
				0.04413488507270813,
				-0.01800980046391487,
				0.06685429066419601
			],
			"min":[
				-0.04413459822535515,
				-0.07534897327423096,
				-0.07161620259284973
			],
			"type":"VEC3"
		},
		{
			"bufferView":144,
			"componentType":5126,
			"count":26939,
			"type":"VEC3"
		},
		{
			"bufferView":145,
			"componentType":5126,
			"count":26939,
			"type":"VEC2"
		},
		{
			"bufferView":146,
			"componentType":5123,
			"count":152856,
			"type":"SCALAR"
		},
		{
			"bufferView":147,
			"componentType":5126,
			"count":26386,
			"max":[
				0.056404661387205124,
				0.0483831986784935,
				0.1730605810880661
			],
			"min":[
				-0.05640460178256035,
				-0.0801929458975792,
				-0.09602289646863937
			],
			"type":"VEC3"
		},
		{
			"bufferView":148,
			"componentType":5126,
			"count":26386,
			"type":"VEC3"
		},
		{
			"bufferView":149,
			"componentType":5126,
			"count":26386,
			"type":"VEC2"
		},
		{
			"bufferView":150,
			"componentType":5126,
			"count":26386,
			"type":"VEC2"
		},
		{
			"bufferView":151,
			"componentType":5123,
			"count":133935,
			"type":"SCALAR"
		},
		{
			"bufferView":152,
			"componentType":5126,
			"count":4828,
			"max":[
				0.04361120983958244,
				-0.008196789771318436,
				-0.06726033985614777
			],
			"min":[
				-0.03809560090303421,
				-0.03561745956540108,
				-0.07603380084037781
			],
			"type":"VEC3"
		},
		{
			"bufferView":153,
			"componentType":5126,
			"count":4828,
			"type":"VEC3"
		},
		{
			"bufferView":154,
			"componentType":5126,
			"count":4828,
			"type":"VEC2"
		},
		{
			"bufferView":155,
			"componentType":5126,
			"count":4828,
			"type":"VEC2"
		},
		{
			"bufferView":156,
			"componentType":5123,
			"count":18723,
			"type":"SCALAR"
		},
		{
			"bufferView":157,
			"componentType":5126,
			"count":48,
			"max":[
				0.04280064254999161,
				-0.07476290315389633,
				-0.027783378958702087
			],
			"min":[
				-0.042800601571798325,
				-0.07507602125406265,
				-0.04377090185880661
			],
			"type":"VEC3"
		},
		{
			"bufferView":158,
			"componentType":5126,
			"count":48,
			"type":"VEC3"
		},
		{
			"bufferView":159,
			"componentType":5126,
			"count":48,
			"type":"VEC2"
		},
		{
			"bufferView":160,
			"componentType":5123,
			"count":72,
			"type":"SCALAR"
		},
		{
			"bufferView":161,
			"componentType":5126,
			"count":14696,
			"max":[
				0.04912377893924713,
				0.04831065610051155,
				-0.0503058061003685
			],
			"min":[
				-0.050014201551675797,
				-0.007867207750678062,
				-0.08172668516635895
			],
			"type":"VEC3"
		},
		{
			"bufferView":162,
			"componentType":5126,
			"count":14696,
			"type":"VEC3"
		},
		{
			"bufferView":163,
			"componentType":5126,
			"count":14696,
			"type":"VEC2"
		},
		{
			"bufferView":164,
			"componentType":5126,
			"count":14696,
			"type":"VEC2"
		},
		{
			"bufferView":165,
			"componentType":5123,
			"count":38913,
			"type":"SCALAR"
		},
		{
			"bufferView":166,
			"componentType":5126,
			"count":26574,
			"max":[
				0.04575786739587784,
				0.026737699285149574,
				0.020435620099306107
			],
			"min":[
				-0.04575800150632858,
				-0.07341894507408142,
				-0.00518854008987546
			],
			"type":"VEC3"
		},
		{
			"bufferView":167,
			"componentType":5126,
			"count":26574,
			"type":"VEC3"
		},
		{
			"bufferView":168,
			"componentType":5126,
			"count":26574,
			"type":"VEC2"
		},
		{
			"bufferView":169,
			"componentType":5126,
			"count":26574,
			"type":"VEC2"
		},
		{
			"bufferView":170,
			"componentType":5123,
			"count":130395,
			"type":"SCALAR"
		},
		{
			"bufferView":171,
			"componentType":5126,
			"count":5552,
			"max":[
				0.040912140160799026,
				0.048222001641988754,
				0.013756493106484413
			],
			"min":[
				-0.04091230034828186,
				0.025355713441967964,
				-0.036917999386787415
			],
			"type":"VEC3"
		},
		{
			"bufferView":172,
			"componentType":5126,
			"count":5552,
			"type":"VEC3"
		},
		{
			"bufferView":173,
			"componentType":5126,
			"count":5552,
			"type":"VEC2"
		},
		{
			"bufferView":174,
			"componentType":5123,
			"count":12684,
			"type":"SCALAR"
		},
		{
			"bufferView":175,
			"componentType":5126,
			"count":11114,
			"max":[
				0.047838035970926285,
				0.03549030050635338,
				0.11487813293933868
			],
			"min":[
				-0.0478379987180233,
				-0.04054028168320656,
				-0.04085849970579147
			],
			"type":"VEC3"
		},
		{
			"bufferView":176,
			"componentType":5126,
			"count":11114,
			"type":"VEC3"
		},
		{
			"bufferView":177,
			"componentType":5126,
			"count":11114,
			"type":"VEC2"
		},
		{
			"bufferView":178,
			"componentType":5126,
			"count":11114,
			"type":"VEC2"
		},
		{
			"bufferView":179,
			"componentType":5123,
			"count":61764,
			"type":"SCALAR"
		},
		{
			"bufferView":180,
			"componentType":5126,
			"count":1290,
			"max":[
				0.03671665117144585,
				-0.007662469986826181,
				-0.04735145345330238
			],
			"min":[
				0.008189705200493336,
				-0.022457927465438843,
				-0.06999629735946655
			],
			"type":"VEC3"
		},
		{
			"bufferView":181,
			"componentType":5126,
			"count":1290,
			"type":"VEC3"
		},
		{
			"bufferView":182,
			"componentType":5126,
			"count":1290,
			"type":"VEC2"
		},
		{
			"bufferView":183,
			"componentType":5126,
			"count":1290,
			"type":"VEC2"
		},
		{
			"bufferView":184,
			"componentType":5123,
			"count":5778,
			"type":"SCALAR"
		},
		{
			"bufferView":185,
			"componentType":5126,
			"count":1057,
			"max":[
				-0.009878354147076607,
				-0.007835142314434052,
				-0.04735145345330238
			],
			"min":[
				-0.03840529918670654,
				-0.022630600258708,
				-0.06999629735946655
			],
			"type":"VEC3"
		},
		{
			"bufferView":186,
			"componentType":5126,
			"count":1057,
			"type":"VEC3"
		},
		{
			"bufferView":187,
			"componentType":5126,
			"count":1057,
			"type":"VEC2"
		},
		{
			"bufferView":188,
			"componentType":5126,
			"count":1057,
			"type":"VEC2"
		},
		{
			"bufferView":189,
			"componentType":5123,
			"count":4878,
			"type":"SCALAR"
		},
		{
			"bufferView":190,
			"componentType":5126,
			"count":96,
			"max":[
				0.010811051353812218,
				0.019940000027418137,
				0.014226685278117657
			],
			"min":[
				-0.010811000131070614,
				-0.019910382106900215,
				-0.0029409099370241165
			],
			"type":"VEC3"
		},
		{
			"bufferView":191,
			"componentType":5126,
			"count":96,
			"type":"VEC3"
		},
		{
			"bufferView":192,
			"componentType":5126,
			"count":96,
			"type":"VEC2"
		},
		{
			"bufferView":193,
			"componentType":5126,
			"count":96,
			"type":"VEC2"
		},
		{
			"bufferView":194,
			"componentType":5126,
			"count":96,
			"type":"VEC2"
		},
		{
			"bufferView":195,
			"componentType":5123,
			"count":192,
			"type":"SCALAR"
		},
		{
			"bufferView":196,
			"componentType":5126,
			"count":444,
			"max":[
				0.013262526132166386,
				0.013262500055134296,
				0.006032024975866079
			],
			"min":[
				-0.013262500055134296,
				-0.013262526132166386,
				-0.03022710047662258
			],
			"type":"VEC3"
		},
		{
			"bufferView":197,
			"componentType":5126,
			"count":444,
			"type":"VEC3"
		},
		{
			"bufferView":198,
			"componentType":5126,
			"count":444,
			"type":"VEC2"
		},
		{
			"bufferView":199,
			"componentType":5126,
			"count":444,
			"type":"VEC2"
		},
		{
			"bufferView":200,
			"componentType":5126,
			"count":444,
			"type":"VEC2"
		},
		{
			"bufferView":201,
			"componentType":5123,
			"count":1020,
			"type":"SCALAR"
		},
		{
			"bufferView":202,
			"componentType":5126,
			"count":258,
			"max":[
				0.010279230773448944,
				0.010279200039803982,
				0.025418467819690704
			],
			"min":[
				-0.010279200039803982,
				-0.010279230773448944,
				-0.014544500038027763
			],
			"type":"VEC3"
		},
		{
			"bufferView":203,
			"componentType":5126,
			"count":258,
			"type":"VEC3"
		},
		{
			"bufferView":204,
			"componentType":5126,
			"count":258,
			"type":"VEC2"
		},
		{
			"bufferView":205,
			"componentType":5126,
			"count":258,
			"type":"VEC2"
		},
		{
			"bufferView":206,
			"componentType":5126,
			"count":258,
			"type":"VEC2"
		},
		{
			"bufferView":207,
			"componentType":5123,
			"count":780,
			"type":"SCALAR"
		},
		{
			"bufferView":208,
			"componentType":5126,
			"count":131,
			"max":[
				0.005761618260294199,
				0.0057616098783910275,
				0.023151127621531487
			],
			"min":[
				-0.005761600099503994,
				-0.005761608015745878,
				6.117249722592533e-05
			],
			"type":"VEC3"
		},
		{
			"bufferView":209,
			"componentType":5126,
			"count":131,
			"type":"VEC3"
		},
		{
			"bufferView":210,
			"componentType":5126,
			"count":131,
			"type":"VEC2"
		},
		{
			"bufferView":211,
			"componentType":5126,
			"count":131,
			"type":"VEC2"
		},
		{
			"bufferView":212,
			"componentType":5126,
			"count":131,
			"type":"VEC2"
		},
		{
			"bufferView":213,
			"componentType":5123,
			"count":528,
			"type":"SCALAR"
		},
		{
			"bufferView":214,
			"componentType":5126,
			"count":601,
			"max":[
				0.018225034698843956,
				0.018221300095319748,
				0.0005602280143648386
			],
			"min":[
				-0.01821729727089405,
				-0.01822103187441826,
				-0.0911678895354271
			],
			"type":"VEC3"
		},
		{
			"bufferView":215,
			"componentType":5126,
			"count":601,
			"type":"VEC3"
		},
		{
			"bufferView":216,
			"componentType":5126,
			"count":601,
			"type":"VEC2"
		},
		{
			"bufferView":217,
			"componentType":5126,
			"count":601,
			"type":"VEC2"
		},
		{
			"bufferView":218,
			"componentType":5126,
			"count":601,
			"type":"VEC2"
		},
		{
			"bufferView":219,
			"componentType":5123,
			"count":2100,
			"type":"SCALAR"
		},
		{
			"bufferView":220,
			"componentType":5126,
			"count":659,
			"max":[
				0.01902618445456028,
				0.018221300095319748,
				0.006923384964466095
			],
			"min":[
				-0.019018400460481644,
				-0.019039960578083992,
				-0.09771029651165009
			],
			"type":"VEC3"
		},
		{
			"bufferView":221,
			"componentType":5126,
			"count":659,
			"type":"VEC3"
		},
		{
			"bufferView":222,
			"componentType":5126,
			"count":659,
			"type":"VEC2"
		},
		{
			"bufferView":223,
			"componentType":5126,
			"count":659,
			"type":"VEC2"
		},
		{
			"bufferView":224,
			"componentType":5126,
			"count":659,
			"type":"VEC2"
		},
		{
			"bufferView":225,
			"componentType":5123,
			"count":2070,
			"type":"SCALAR"
		},
		{
			"bufferView":226,
			"componentType":5126,
			"count":128,
			"max":[
				0.011387945152819157,
				0.0026996000669896603,
				0.021828478202223778
			],
			"min":[
				-0.011388000100851059,
				-0.002699608216062188,
				-0.02182829938828945
			],
			"type":"VEC3"
		},
		{
			"bufferView":227,
			"componentType":5126,
			"count":128,
			"type":"VEC3"
		},
		{
			"bufferView":228,
			"componentType":5126,
			"count":128,
			"type":"VEC2"
		},
		{
			"bufferView":229,
			"componentType":5126,
			"count":128,
			"type":"VEC2"
		},
		{
			"bufferView":230,
			"componentType":5126,
			"count":128,
			"type":"VEC2"
		},
		{
			"bufferView":231,
			"componentType":5123,
			"count":498,
			"type":"SCALAR"
		},
		{
			"bufferView":232,
			"componentType":5126,
			"count":346,
			"max":[
				0.05334535241127014,
				0.005831900052726269,
				0.011105787940323353
			],
			"min":[
				-0.022578900679945946,
				-0.005831906106323004,
				-0.011105800047516823
			],
			"type":"VEC3"
		},
		{
			"bufferView":233,
			"componentType":5126,
			"count":346,
			"type":"VEC3"
		},
		{
			"bufferView":234,
			"componentType":5126,
			"count":346,
			"type":"VEC2"
		},
		{
			"bufferView":235,
			"componentType":5126,
			"count":346,
			"type":"VEC2"
		},
		{
			"bufferView":236,
			"componentType":5126,
			"count":346,
			"type":"VEC2"
		},
		{
			"bufferView":237,
			"componentType":5123,
			"count":1560,
			"type":"SCALAR"
		},
		{
			"bufferView":238,
			"componentType":5126,
			"count":312,
			"max":[
				0.31966632604599,
				0.09722130000591278,
				0.01680438220500946
			],
			"min":[
				-0.3196670114994049,
				-0.09761455655097961,
				-0.016405299305915833
			],
			"type":"VEC3"
		},
		{
			"bufferView":239,
			"componentType":5126,
			"count":312,
			"type":"VEC3"
		},
		{
			"bufferView":240,
			"componentType":5126,
			"count":312,
			"type":"VEC2"
		},
		{
			"bufferView":241,
			"componentType":5123,
			"count":1398,
			"type":"SCALAR"
		},
		{
			"bufferView":242,
			"componentType":5126,
			"count":13743,
			"max":[
				0.49568870663642883,
				0.2793079912662506,
				0.17022868990898132
			],
			"min":[
				-0.4956899881362915,
				-0.4743821620941162,
				-0.17022700607776642
			],
			"type":"VEC3"
		},
		{
			"bufferView":243,
			"componentType":5126,
			"count":13743,
			"type":"VEC3"
		},
		{
			"bufferView":244,
			"componentType":5126,
			"count":13743,
			"type":"VEC2"
		},
		{
			"bufferView":245,
			"componentType":5126,
			"count":13743,
			"type":"VEC2"
		},
		{
			"bufferView":246,
			"componentType":5126,
			"count":13743,
			"type":"VEC2"
		},
		{
			"bufferView":247,
			"componentType":5123,
			"count":44130,
			"type":"SCALAR"
		},
		{
			"bufferView":248,
			"componentType":5126,
			"count":13319,
			"max":[
				-0.015014094300568104,
				-0.2819330096244812,
				-0.062345318496227264
			],
			"min":[
				-0.1792210042476654,
				-0.535310685634613,
				-0.10809099674224854
			],
			"type":"VEC3"
		},
		{
			"bufferView":249,
			"componentType":5126,
			"count":13319,
			"type":"VEC3"
		},
		{
			"bufferView":250,
			"componentType":5126,
			"count":13319,
			"type":"VEC2"
		},
		{
			"bufferView":251,
			"componentType":5126,
			"count":13319,
			"type":"VEC2"
		},
		{
			"bufferView":252,
			"componentType":5126,
			"count":13319,
			"type":"VEC2"
		},
		{
			"bufferView":253,
			"componentType":5123,
			"count":29094,
			"type":"SCALAR"
		},
		{
			"bufferView":254,
			"componentType":5126,
			"count":59304,
			"max":[
				0.3735749125480652,
				0.221452996134758,
				0.11641494184732437
			],
			"min":[
				-0.37357598543167114,
				-0.48282697796821594,
				-0.15003399550914764
			],
			"type":"VEC3"
		},
		{
			"bufferView":255,
			"componentType":5126,
			"count":59304,
			"type":"VEC3"
		},
		{
			"bufferView":256,
			"componentType":5126,
			"count":59304,
			"type":"VEC2"
		},
		{
			"bufferView":257,
			"componentType":5123,
			"count":132813,
			"type":"SCALAR"
		}
	],
	"bufferViews":[
		{
			"buffer":0,
			"byteLength":40440,
			"byteOffset":0,
			"target":34962
		},
		{
			"buffer":0,
			"byteLength":40440,
			"byteOffset":40440,
			"target":34962
		},
		{
			"buffer":0,
			"byteLength":26960,
			"byteOffset":80880,
			"target":34962
		},
		{
			"buffer":0,
			"byteLength":26960,
			"byteOffset":107840,
			"target":34962
		},
		{
			"buffer":0,
			"byteLength":27858,
			"byteOffset":134800,
			"target":34963
		},
		{
			"buffer":0,
			"byteLength":1992,
			"byteOffset":162660,
			"target":34962
		},
		{
			"buffer":0,
			"byteLength":1992,
			"byteOffset":164652,
			"target":34962
		},
		{
			"buffer":0,
			"byteLength":1328,
			"byteOffset":166644,
			"target":34962
		},
		{
			"buffer":0,
			"byteLength":1328,
			"byteOffset":167972,
			"target":34962
		},
		{
			"buffer":0,
			"byteLength":1272,
			"byteOffset":169300,
			"target":34963
		},
		{
			"buffer":0,
			"byteLength":5904,
			"byteOffset":170572,
			"target":34962
		},
		{
			"buffer":0,
			"byteLength":5904,
			"byteOffset":176476,
			"target":34962
		},
		{
			"buffer":0,
			"byteLength":3936,
			"byteOffset":182380,
			"target":34962
		},
		{
			"buffer":0,
			"byteLength":3936,
			"byteOffset":186316,
			"target":34962
		},
		{
			"buffer":0,
			"byteLength":3168,
			"byteOffset":190252,
			"target":34963
		},
		{
			"buffer":0,
			"byteLength":636,
			"byteOffset":193420,
			"target":34962
		},
		{
			"buffer":0,
			"byteLength":636,
			"byteOffset":194056,
			"target":34962
		},
		{
			"buffer":0,
			"byteLength":424,
			"byteOffset":194692,
			"target":34962
		},
		{
			"buffer":0,
			"byteLength":424,
			"byteOffset":195116,
			"target":34962
		},
		{
			"buffer":0,
			"byteLength":456,
			"byteOffset":195540,
			"target":34963
		},
		{
			"buffer":0,
			"byteLength":5256,
			"byteOffset":195996,
			"target":34962
		},
		{
			"buffer":0,
			"byteLength":5256,
			"byteOffset":201252,
			"target":34962
		},
		{
			"buffer":0,
			"byteLength":3504,
			"byteOffset":206508,
			"target":34962
		},
		{
			"buffer":0,
			"byteLength":3504,
			"byteOffset":210012,
			"target":34962
		},
		{
			"buffer":0,
			"byteLength":3048,
			"byteOffset":213516,
			"target":34963
		},
		{
			"buffer":0,
			"byteLength":636,
			"byteOffset":216564,
			"target":34962
		},
		{
			"buffer":0,
			"byteLength":636,
			"byteOffset":217200,
			"target":34962
		},
		{
			"buffer":0,
			"byteLength":424,
			"byteOffset":217836,
			"target":34962
		},
		{
			"buffer":0,
			"byteLength":424,
			"byteOffset":218260,
			"target":34962
		},
		{
			"buffer":0,
			"byteLength":456,
			"byteOffset":218684,
			"target":34963
		},
		{
			"buffer":0,
			"byteLength":1464,
			"byteOffset":219140,
			"target":34962
		},
		{
			"buffer":0,
			"byteLength":1464,
			"byteOffset":220604,
			"target":34962
		},
		{
			"buffer":0,
			"byteLength":976,
			"byteOffset":222068,
			"target":34962
		},
		{
			"buffer":0,
			"byteLength":976,
			"byteOffset":223044,
			"target":34962
		},
		{
			"buffer":0,
			"byteLength":636,
			"byteOffset":224020,
			"target":34963
		},
		{
			"buffer":0,
			"byteLength":3708,
			"byteOffset":224656,
			"target":34962
		},
		{
			"buffer":0,
			"byteLength":3708,
			"byteOffset":228364,
			"target":34962
		},
		{
			"buffer":0,
			"byteLength":2472,
			"byteOffset":232072,
			"target":34962
		},
		{
			"buffer":0,
			"byteLength":2472,
			"byteOffset":234544,
			"target":34962
		},
		{
			"buffer":0,
			"byteLength":1776,
			"byteOffset":237016,
			"target":34963
		},
		{
			"buffer":0,
			"byteLength":2844,
			"byteOffset":238792,
			"target":34962
		},
		{
			"buffer":0,
			"byteLength":2844,
			"byteOffset":241636,
			"target":34962
		},
		{
			"buffer":0,
			"byteLength":1896,
			"byteOffset":244480,
			"target":34962
		},
		{
			"buffer":0,
			"byteLength":1896,
			"byteOffset":246376,
			"target":34962
		},
		{
			"buffer":0,
			"byteLength":1488,
			"byteOffset":248272,
			"target":34963
		},
		{
			"buffer":0,
			"byteLength":396,
			"byteOffset":249760,
			"target":34962
		},
		{
			"buffer":0,
			"byteLength":396,
			"byteOffset":250156,
			"target":34962
		},
		{
			"buffer":0,
			"byteLength":264,
			"byteOffset":250552,
			"target":34962
		},
		{
			"buffer":0,
			"byteLength":264,
			"byteOffset":250816,
			"target":34962
		},
		{
			"buffer":0,
			"byteLength":336,
			"byteOffset":251080,
			"target":34963
		},
		{
			"buffer":0,
			"byteLength":1368,
			"byteOffset":251416,
			"target":34962
		},
		{
			"buffer":0,
			"byteLength":1368,
			"byteOffset":252784,
			"target":34962
		},
		{
			"buffer":0,
			"byteLength":912,
			"byteOffset":254152,
			"target":34962
		},
		{
			"buffer":0,
			"byteLength":912,
			"byteOffset":255064,
			"target":34962
		},
		{
			"buffer":0,
			"byteLength":924,
			"byteOffset":255976,
			"target":34963
		},
		{
			"buffer":0,
			"byteLength":1428,
			"byteOffset":256900,
			"target":34962
		},
		{
			"buffer":0,
			"byteLength":1428,
			"byteOffset":258328,
			"target":34962
		},
		{
			"buffer":0,
			"byteLength":952,
			"byteOffset":259756,
			"target":34962
		},
		{
			"buffer":0,
			"byteLength":952,
			"byteOffset":260708,
			"target":34962
		},
		{
			"buffer":0,
			"byteLength":930,
			"byteOffset":261660,
			"target":34963
		},
		{
			"buffer":0,
			"byteLength":1572,
			"byteOffset":262592,
			"target":34962
		},
		{
			"buffer":0,
			"byteLength":1572,
			"byteOffset":264164,
			"target":34962
		},
		{
			"buffer":0,
			"byteLength":1048,
			"byteOffset":265736,
			"target":34962
		},
		{
			"buffer":0,
			"byteLength":1048,
			"byteOffset":266784,
			"target":34962
		},
		{
			"buffer":0,
			"byteLength":882,
			"byteOffset":267832,
			"target":34963
		},
		{
			"buffer":0,
			"byteLength":1584,
			"byteOffset":268716,
			"target":34962
		},
		{
			"buffer":0,
			"byteLength":1584,
			"byteOffset":270300,
			"target":34962
		},
		{
			"buffer":0,
			"byteLength":1056,
			"byteOffset":271884,
			"target":34962
		},
		{
			"buffer":0,
			"byteLength":1056,
			"byteOffset":272940,
			"target":34962
		},
		{
			"buffer":0,
			"byteLength":888,
			"byteOffset":273996,
			"target":34963
		},
		{
			"buffer":0,
			"byteLength":228,
			"byteOffset":274884,
			"target":34962
		},
		{
			"buffer":0,
			"byteLength":228,
			"byteOffset":275112,
			"target":34962
		},
		{
			"buffer":0,
			"byteLength":152,
			"byteOffset":275340,
			"target":34962
		},
		{
			"buffer":0,
			"byteLength":152,
			"byteOffset":275492,
			"target":34962
		},
		{
			"buffer":0,
			"byteLength":66,
			"byteOffset":275644,
			"target":34963
		},
		{
			"buffer":0,
			"byteLength":492,
			"byteOffset":275712,
			"target":34962
		},
		{
			"buffer":0,
			"byteLength":492,
			"byteOffset":276204,
			"target":34962
		},
		{
			"buffer":0,
			"byteLength":328,
			"byteOffset":276696,
			"target":34962
		},
		{
			"buffer":0,
			"byteLength":328,
			"byteOffset":277024,
			"target":34962
		},
		{
			"buffer":0,
			"byteLength":126,
			"byteOffset":277352,
			"target":34963
		},
		{
			"buffer":0,
			"byteLength":1068,
			"byteOffset":277480,
			"target":34962
		},
		{
			"buffer":0,
			"byteLength":1068,
			"byteOffset":278548,
			"target":34962
		},
		{
			"buffer":0,
			"byteLength":712,
			"byteOffset":279616,
			"target":34962
		},
		{
			"buffer":0,
			"byteLength":712,
			"byteOffset":280328,
			"target":34962
		},
		{
			"buffer":0,
			"byteLength":366,
			"byteOffset":281040,
			"target":34963
		},
		{
			"buffer":0,
			"byteLength":1056,
			"byteOffset":281408,
			"target":34962
		},
		{
			"buffer":0,
			"byteLength":1056,
			"byteOffset":282464,
			"target":34962
		},
		{
			"buffer":0,
			"byteLength":704,
			"byteOffset":283520,
			"target":34962
		},
		{
			"buffer":0,
			"byteLength":704,
			"byteOffset":284224,
			"target":34962
		},
		{
			"buffer":0,
			"byteLength":384,
			"byteOffset":284928,
			"target":34963
		},
		{
			"buffer":0,
			"byteLength":4596,
			"byteOffset":285312,
			"target":34962
		},
		{
			"buffer":0,
			"byteLength":4596,
			"byteOffset":289908,
			"target":34962
		},
		{
			"buffer":0,
			"byteLength":3064,
			"byteOffset":294504,
			"target":34962
		},
		{
			"buffer":0,
			"byteLength":3064,
			"byteOffset":297568,
			"target":34962
		},
		{
			"buffer":0,
			"byteLength":2748,
			"byteOffset":300632,
			"target":34963
		},
		{
			"buffer":0,
			"byteLength":2772,
			"byteOffset":303380,
			"target":34962
		},
		{
			"buffer":0,
			"byteLength":2772,
			"byteOffset":306152,
			"target":34962
		},
		{
			"buffer":0,
			"byteLength":1848,
			"byteOffset":308924,
			"target":34962
		},
		{
			"buffer":0,
			"byteLength":1848,
			"byteOffset":310772,
			"target":34962
		},
		{
			"buffer":0,
			"byteLength":984,
			"byteOffset":312620,
			"target":34963
		},
		{
			"buffer":0,
			"byteLength":2208,
			"byteOffset":313604,
			"target":34962
		},
		{
			"buffer":0,
			"byteLength":2208,
			"byteOffset":315812,
			"target":34962
		},
		{
			"buffer":0,
			"byteLength":1472,
			"byteOffset":318020,
			"target":34962
		},
		{
			"buffer":0,
			"byteLength":1472,
			"byteOffset":319492,
			"target":34962
		},
		{
			"buffer":0,
			"byteLength":1056,
			"byteOffset":320964,
			"target":34963
		},
		{
			"buffer":0,
			"byteLength":6744,
			"byteOffset":322020,
			"target":34962
		},
		{
			"buffer":0,
			"byteLength":6744,
			"byteOffset":328764,
			"target":34962
		},
		{
			"buffer":0,
			"byteLength":4496,
			"byteOffset":335508,
			"target":34962
		},
		{
			"buffer":0,
			"byteLength":4496,
			"byteOffset":340004,
			"target":34962
		},
		{
			"buffer":0,
			"byteLength":4884,
			"byteOffset":344500,
			"target":34963
		},
		{
			"buffer":0,
			"byteLength":6936,
			"byteOffset":349384,
			"target":34962
		},
		{
			"buffer":0,
			"byteLength":6936,
			"byteOffset":356320,
			"target":34962
		},
		{
			"buffer":0,
			"byteLength":4624,
			"byteOffset":363256,
			"target":34962
		},
		{
			"buffer":0,
			"byteLength":4624,
			"byteOffset":367880,
			"target":34962
		},
		{
			"buffer":0,
			"byteLength":5004,
			"byteOffset":372504,
			"target":34963
		},
		{
			"buffer":0,
			"byteLength":7056,
			"byteOffset":377508,
			"target":34962
		},
		{
			"buffer":0,
			"byteLength":7056,
			"byteOffset":384564,
			"target":34962
		},
		{
			"buffer":0,
			"byteLength":4704,
			"byteOffset":391620,
			"target":34962
		},
		{
			"buffer":0,
			"byteLength":4704,
			"byteOffset":396324,
			"target":34962
		},
		{
			"buffer":0,
			"byteLength":5004,
			"byteOffset":401028,
			"target":34963
		},
		{
			"buffer":0,
			"byteLength":912,
			"byteOffset":406032,
			"target":34962
		},
		{
			"buffer":0,
			"byteLength":912,
			"byteOffset":406944,
			"target":34962
		},
		{
			"buffer":0,
			"byteLength":608,
			"byteOffset":407856,
			"target":34962
		},
		{
			"buffer":0,
			"byteLength":608,
			"byteOffset":408464,
			"target":34962
		},
		{
			"buffer":0,
			"byteLength":720,
			"byteOffset":409072,
			"target":34963
		},
		{
			"buffer":0,
			"byteLength":1104,
			"byteOffset":409792,
			"target":34962
		},
		{
			"buffer":0,
			"byteLength":1104,
			"byteOffset":410896,
			"target":34962
		},
		{
			"buffer":0,
			"byteLength":736,
			"byteOffset":412000,
			"target":34962
		},
		{
			"buffer":0,
			"byteLength":736,
			"byteOffset":412736,
			"target":34962
		},
		{
			"buffer":0,
			"byteLength":240,
			"byteOffset":413472,
			"target":34963
		},
		{
			"buffer":0,
			"byteLength":1104,
			"byteOffset":413712,
			"target":34962
		},
		{
			"buffer":0,
			"byteLength":1104,
			"byteOffset":414816,
			"target":34962
		},
		{
			"buffer":0,
			"byteLength":736,
			"byteOffset":415920,
			"target":34962
		},
		{
			"buffer":0,
			"byteLength":736,
			"byteOffset":416656,
			"target":34962
		},
		{
			"buffer":0,
			"byteLength":240,
			"byteOffset":417392,
			"target":34963
		},
		{
			"buffer":0,
			"byteLength":22608,
			"byteOffset":417632,
			"target":34962
		},
		{
			"buffer":0,
			"byteLength":22608,
			"byteOffset":440240,
			"target":34962
		},
		{
			"buffer":0,
			"byteLength":15072,
			"byteOffset":462848,
			"target":34962
		},
		{
			"buffer":0,
			"byteLength":15408,
			"byteOffset":477920,
			"target":34963
		},
		{
			"buffer":0,
			"byteLength":323388,
			"byteOffset":493328,
			"target":34962
		},
		{
			"buffer":0,
			"byteLength":323388,
			"byteOffset":816716,
			"target":34962
		},
		{
			"buffer":0,
			"byteLength":215592,
			"byteOffset":1140104,
			"target":34962
		},
		{
			"buffer":0,
			"byteLength":234888,
			"byteOffset":1355696,
			"target":34963
		},
		{
			"buffer":0,
			"byteLength":323268,
			"byteOffset":1590584,
			"target":34962
		},
		{
			"buffer":0,
			"byteLength":323268,
			"byteOffset":1913852,
			"target":34962
		},
		{
			"buffer":0,
			"byteLength":215512,
			"byteOffset":2237120,
			"target":34962
		},
		{
			"buffer":0,
			"byteLength":305712,
			"byteOffset":2452632,
			"target":34963
		},
		{
			"buffer":0,
			"byteLength":316632,
			"byteOffset":2758344,
			"target":34962
		},
		{
			"buffer":0,
			"byteLength":316632,
			"byteOffset":3074976,
			"target":34962
		},
		{
			"buffer":0,
			"byteLength":211088,
			"byteOffset":3391608,
			"target":34962
		},
		{
			"buffer":0,
			"byteLength":211088,
			"byteOffset":3602696,
			"target":34962
		},
		{
			"buffer":0,
			"byteLength":267870,
			"byteOffset":3813784,
			"target":34963
		},
		{
			"buffer":0,
			"byteLength":57936,
			"byteOffset":4081656,
			"target":34962
		},
		{
			"buffer":0,
			"byteLength":57936,
			"byteOffset":4139592,
			"target":34962
		},
		{
			"buffer":0,
			"byteLength":38624,
			"byteOffset":4197528,
			"target":34962
		},
		{
			"buffer":0,
			"byteLength":38624,
			"byteOffset":4236152,
			"target":34962
		},
		{
			"buffer":0,
			"byteLength":37446,
			"byteOffset":4274776,
			"target":34963
		},
		{
			"buffer":0,
			"byteLength":576,
			"byteOffset":4312224,
			"target":34962
		},
		{
			"buffer":0,
			"byteLength":576,
			"byteOffset":4312800,
			"target":34962
		},
		{
			"buffer":0,
			"byteLength":384,
			"byteOffset":4313376,
			"target":34962
		},
		{
			"buffer":0,
			"byteLength":144,
			"byteOffset":4313760,
			"target":34963
		},
		{
			"buffer":0,
			"byteLength":176352,
			"byteOffset":4313904,
			"target":34962
		},
		{
			"buffer":0,
			"byteLength":176352,
			"byteOffset":4490256,
			"target":34962
		},
		{
			"buffer":0,
			"byteLength":117568,
			"byteOffset":4666608,
			"target":34962
		},
		{
			"buffer":0,
			"byteLength":117568,
			"byteOffset":4784176,
			"target":34962
		},
		{
			"buffer":0,
			"byteLength":77826,
			"byteOffset":4901744,
			"target":34963
		},
		{
			"buffer":0,
			"byteLength":318888,
			"byteOffset":4979572,
			"target":34962
		},
		{
			"buffer":0,
			"byteLength":318888,
			"byteOffset":5298460,
			"target":34962
		},
		{
			"buffer":0,
			"byteLength":212592,
			"byteOffset":5617348,
			"target":34962
		},
		{
			"buffer":0,
			"byteLength":212592,
			"byteOffset":5829940,
			"target":34962
		},
		{
			"buffer":0,
			"byteLength":260790,
			"byteOffset":6042532,
			"target":34963
		},
		{
			"buffer":0,
			"byteLength":66624,
			"byteOffset":6303324,
			"target":34962
		},
		{
			"buffer":0,
			"byteLength":66624,
			"byteOffset":6369948,
			"target":34962
		},
		{
			"buffer":0,
			"byteLength":44416,
			"byteOffset":6436572,
			"target":34962
		},
		{
			"buffer":0,
			"byteLength":25368,
			"byteOffset":6480988,
			"target":34963
		},
		{
			"buffer":0,
			"byteLength":133368,
			"byteOffset":6506356,
			"target":34962
		},
		{
			"buffer":0,
			"byteLength":133368,
			"byteOffset":6639724,
			"target":34962
		},
		{
			"buffer":0,
			"byteLength":88912,
			"byteOffset":6773092,
			"target":34962
		},
		{
			"buffer":0,
			"byteLength":88912,
			"byteOffset":6862004,
			"target":34962
		},
		{
			"buffer":0,
			"byteLength":123528,
			"byteOffset":6950916,
			"target":34963
		},
		{
			"buffer":0,
			"byteLength":15480,
			"byteOffset":7074444,
			"target":34962
		},
		{
			"buffer":0,
			"byteLength":15480,
			"byteOffset":7089924,
			"target":34962
		},
		{
			"buffer":0,
			"byteLength":10320,
			"byteOffset":7105404,
			"target":34962
		},
		{
			"buffer":0,
			"byteLength":10320,
			"byteOffset":7115724,
			"target":34962
		},
		{
			"buffer":0,
			"byteLength":11556,
			"byteOffset":7126044,
			"target":34963
		},
		{
			"buffer":0,
			"byteLength":12684,
			"byteOffset":7137600,
			"target":34962
		},
		{
			"buffer":0,
			"byteLength":12684,
			"byteOffset":7150284,
			"target":34962
		},
		{
			"buffer":0,
			"byteLength":8456,
			"byteOffset":7162968,
			"target":34962
		},
		{
			"buffer":0,
			"byteLength":8456,
			"byteOffset":7171424,
			"target":34962
		},
		{
			"buffer":0,
			"byteLength":9756,
			"byteOffset":7179880,
			"target":34963
		},
		{
			"buffer":0,
			"byteLength":1152,
			"byteOffset":7189636,
			"target":34962
		},
		{
			"buffer":0,
			"byteLength":1152,
			"byteOffset":7190788,
			"target":34962
		},
		{
			"buffer":0,
			"byteLength":768,
			"byteOffset":7191940,
			"target":34962
		},
		{
			"buffer":0,
			"byteLength":768,
			"byteOffset":7192708,
			"target":34962
		},
		{
			"buffer":0,
			"byteLength":768,
			"byteOffset":7193476,
			"target":34962
		},
		{
			"buffer":0,
			"byteLength":384,
			"byteOffset":7194244,
			"target":34963
		},
		{
			"buffer":0,
			"byteLength":5328,
			"byteOffset":7194628,
			"target":34962
		},
		{
			"buffer":0,
			"byteLength":5328,
			"byteOffset":7199956,
			"target":34962
		},
		{
			"buffer":0,
			"byteLength":3552,
			"byteOffset":7205284,
			"target":34962
		},
		{
			"buffer":0,
			"byteLength":3552,
			"byteOffset":7208836,
			"target":34962
		},
		{
			"buffer":0,
			"byteLength":3552,
			"byteOffset":7212388,
			"target":34962
		},
		{
			"buffer":0,
			"byteLength":2040,
			"byteOffset":7215940,
			"target":34963
		},
		{
			"buffer":0,
			"byteLength":3096,
			"byteOffset":7217980,
			"target":34962
		},
		{
			"buffer":0,
			"byteLength":3096,
			"byteOffset":7221076,
			"target":34962
		},
		{
			"buffer":0,
			"byteLength":2064,
			"byteOffset":7224172,
			"target":34962
		},
		{
			"buffer":0,
			"byteLength":2064,
			"byteOffset":7226236,
			"target":34962
		},
		{
			"buffer":0,
			"byteLength":2064,
			"byteOffset":7228300,
			"target":34962
		},
		{
			"buffer":0,
			"byteLength":1560,
			"byteOffset":7230364,
			"target":34963
		},
		{
			"buffer":0,
			"byteLength":1572,
			"byteOffset":7231924,
			"target":34962
		},
		{
			"buffer":0,
			"byteLength":1572,
			"byteOffset":7233496,
			"target":34962
		},
		{
			"buffer":0,
			"byteLength":1048,
			"byteOffset":7235068,
			"target":34962
		},
		{
			"buffer":0,
			"byteLength":1048,
			"byteOffset":7236116,
			"target":34962
		},
		{
			"buffer":0,
			"byteLength":1048,
			"byteOffset":7237164,
			"target":34962
		},
		{
			"buffer":0,
			"byteLength":1056,
			"byteOffset":7238212,
			"target":34963
		},
		{
			"buffer":0,
			"byteLength":7212,
			"byteOffset":7239268,
			"target":34962
		},
		{
			"buffer":0,
			"byteLength":7212,
			"byteOffset":7246480,
			"target":34962
		},
		{
			"buffer":0,
			"byteLength":4808,
			"byteOffset":7253692,
			"target":34962
		},
		{
			"buffer":0,
			"byteLength":4808,
			"byteOffset":7258500,
			"target":34962
		},
		{
			"buffer":0,
			"byteLength":4808,
			"byteOffset":7263308,
			"target":34962
		},
		{
			"buffer":0,
			"byteLength":4200,
			"byteOffset":7268116,
			"target":34963
		},
		{
			"buffer":0,
			"byteLength":7908,
			"byteOffset":7272316,
			"target":34962
		},
		{
			"buffer":0,
			"byteLength":7908,
			"byteOffset":7280224,
			"target":34962
		},
		{
			"buffer":0,
			"byteLength":5272,
			"byteOffset":7288132,
			"target":34962
		},
		{
			"buffer":0,
			"byteLength":5272,
			"byteOffset":7293404,
			"target":34962
		},
		{
			"buffer":0,
			"byteLength":5272,
			"byteOffset":7298676,
			"target":34962
		},
		{
			"buffer":0,
			"byteLength":4140,
			"byteOffset":7303948,
			"target":34963
		},
		{
			"buffer":0,
			"byteLength":1536,
			"byteOffset":7308088,
			"target":34962
		},
		{
			"buffer":0,
			"byteLength":1536,
			"byteOffset":7309624,
			"target":34962
		},
		{
			"buffer":0,
			"byteLength":1024,
			"byteOffset":7311160,
			"target":34962
		},
		{
			"buffer":0,
			"byteLength":1024,
			"byteOffset":7312184,
			"target":34962
		},
		{
			"buffer":0,
			"byteLength":1024,
			"byteOffset":7313208,
			"target":34962
		},
		{
			"buffer":0,
			"byteLength":996,
			"byteOffset":7314232,
			"target":34963
		},
		{
			"buffer":0,
			"byteLength":4152,
			"byteOffset":7315228,
			"target":34962
		},
		{
			"buffer":0,
			"byteLength":4152,
			"byteOffset":7319380,
			"target":34962
		},
		{
			"buffer":0,
			"byteLength":2768,
			"byteOffset":7323532,
			"target":34962
		},
		{
			"buffer":0,
			"byteLength":2768,
			"byteOffset":7326300,
			"target":34962
		},
		{
			"buffer":0,
			"byteLength":2768,
			"byteOffset":7329068,
			"target":34962
		},
		{
			"buffer":0,
			"byteLength":3120,
			"byteOffset":7331836,
			"target":34963
		},
		{
			"buffer":0,
			"byteLength":3744,
			"byteOffset":7334956,
			"target":34962
		},
		{
			"buffer":0,
			"byteLength":3744,
			"byteOffset":7338700,
			"target":34962
		},
		{
			"buffer":0,
			"byteLength":2496,
			"byteOffset":7342444,
			"target":34962
		},
		{
			"buffer":0,
			"byteLength":2796,
			"byteOffset":7344940,
			"target":34963
		},
		{
			"buffer":0,
			"byteLength":164916,
			"byteOffset":7347736,
			"target":34962
		},
		{
			"buffer":0,
			"byteLength":164916,
			"byteOffset":7512652,
			"target":34962
		},
		{
			"buffer":0,
			"byteLength":109944,
			"byteOffset":7677568,
			"target":34962
		},
		{
			"buffer":0,
			"byteLength":109944,
			"byteOffset":7787512,
			"target":34962
		},
		{
			"buffer":0,
			"byteLength":109944,
			"byteOffset":7897456,
			"target":34962
		},
		{
			"buffer":0,
			"byteLength":88260,
			"byteOffset":8007400,
			"target":34963
		},
		{
			"buffer":0,
			"byteLength":159828,
			"byteOffset":8095660,
			"target":34962
		},
		{
			"buffer":0,
			"byteLength":159828,
			"byteOffset":8255488,
			"target":34962
		},
		{
			"buffer":0,
			"byteLength":106552,
			"byteOffset":8415316,
			"target":34962
		},
		{
			"buffer":0,
			"byteLength":106552,
			"byteOffset":8521868,
			"target":34962
		},
		{
			"buffer":0,
			"byteLength":106552,
			"byteOffset":8628420,
			"target":34962
		},
		{
			"buffer":0,
			"byteLength":58188,
			"byteOffset":8734972,
			"target":34963
		},
		{
			"buffer":0,
			"byteLength":711648,
			"byteOffset":8793160,
			"target":34962
		},
		{
			"buffer":0,
			"byteLength":711648,
			"byteOffset":9504808,
			"target":34962
		},
		{
			"buffer":0,
			"byteLength":474432,
			"byteOffset":10216456,
			"target":34962
		},
		{
			"buffer":0,
			"byteLength":265626,
			"byteOffset":10690888,
			"target":34963
		}
	],
	"samplers":[
		{
			"magFilter":9729,
			"minFilter":9987
		}
	],
	"buffers":[
		{
			"byteLength":10956516,
			"uri":"scene.bin"
		}
	]
}
